<svg width="212" height="216" viewBox="0 0 212 216" fill="none" xmlns="http://www.w3.org/2000/svg">
<g clip-path="url(#clip0_236_139)">
<path d="M0 172.271L5.57251 171.535C5.67507 173.226 6.04543 174.476 6.67219 175.292C6.99171 175.693 7.41194 176.013 7.89522 176.224C8.3785 176.435 8.90975 176.529 9.44135 176.499C10.3957 176.537 11.3274 176.219 12.0339 175.614C12.3649 175.312 12.6243 174.947 12.7952 174.544C12.966 174.141 13.0444 173.708 13.0253 173.274C13.0253 171.536 11.4565 169.292 8.31887 166.545C8.07386 166.33 7.89153 166.169 7.74909 166.057C4.67984 163.352 2.70838 161.275 1.83471 159.826C0.976729 158.419 0.526751 156.824 0.529901 155.201C0.505971 154.094 0.727186 152.994 1.17944 151.973C1.63169 150.951 2.30506 150.029 3.15661 149.266C4.0013 148.48 5.0049 147.862 6.10794 147.448C7.21098 147.034 8.39101 146.833 9.5781 146.856C10.6929 146.82 11.8039 146.998 12.8426 147.381C13.8814 147.764 14.8258 148.343 15.6178 149.083C17.1866 150.564 18.085 152.573 18.3129 155.11L12.6151 155.823C12.5125 154.335 12.2124 153.262 11.7148 152.603C11.4493 152.278 11.1021 152.019 10.7044 151.85C10.3066 151.682 9.87072 151.609 9.43565 151.638C9.01403 151.618 8.59273 151.682 8.19976 151.828C7.80679 151.973 7.45116 152.195 7.15651 152.48C6.57062 153.093 6.2655 153.899 6.30753 154.723C6.30753 156.662 8.13844 159.191 11.8003 162.311L12.1421 162.606C14.8277 164.914 16.5884 166.797 17.424 168.257C18.2741 169.768 18.7052 171.457 18.6776 173.167C18.7167 174.277 18.5087 175.382 18.0671 176.411C17.6256 177.441 16.9601 178.372 16.1135 179.145C15.2537 179.924 14.237 180.532 13.1233 180.935C12.0097 181.338 10.8217 181.526 9.62938 181.49C6.73487 181.49 4.43863 180.674 2.74067 179.043C1.04271 177.412 0.129151 175.154 0 172.271Z" fill="white"/>
<path d="M22.7051 181.494V146.852H30.0626L33.6632 166.054C33.8165 166.871 33.9282 167.696 33.9978 168.526C34.068 169.402 34.1058 170.311 34.1058 171.254C34.1091 170.43 34.1541 169.607 34.2408 168.788C34.3325 167.94 34.4621 167.047 34.6294 166.104L38.0734 146.852H45.5389V181.494H40.3622V159.631C40.3622 159.006 40.3999 158.168 40.4755 157.114C40.5511 156.059 40.6483 154.882 40.7832 153.593C40.7022 154.056 40.5943 154.709 40.4593 155.507C40.1948 157.058 40.0167 158.057 39.9195 158.503L35.3905 181.494H32.6375L28.3191 158.459C28.1499 157.532 27.97 156.517 27.7793 155.412C27.5903 154.296 27.477 153.693 27.4446 153.57C27.5633 154.748 27.6497 155.858 27.7199 156.885C27.7901 157.912 27.817 158.827 27.817 159.608V181.494H22.7051Z" fill="white"/>
<path d="M49.584 155.237C49.584 152.616 50.3331 150.565 51.8312 149.082C53.3294 147.598 55.4043 146.855 58.056 146.852C60.5564 146.852 62.5382 147.615 64.0012 149.14C65.4642 150.666 66.1939 152.745 66.1904 155.376V172.398C66.1904 175.307 65.4677 177.549 64.0223 179.125C62.5769 180.701 60.523 181.491 57.8608 181.494C55.1634 181.494 53.1096 180.71 51.6993 179.141C50.2891 177.573 49.5857 175.278 49.5893 172.259L49.584 155.237ZM60.662 173.451V154.916C60.7305 153.999 60.4825 153.086 59.9604 152.333C59.4043 151.781 58.6573 151.472 57.8793 151.472C57.1013 151.472 56.3542 151.781 55.7982 152.333C55.276 153.086 55.028 153.999 55.0966 154.916V173.451C55.03 174.374 55.2777 175.291 55.7982 176.05C56.3509 176.608 57.0992 176.922 57.8793 176.922C58.6594 176.922 59.4077 176.608 59.9604 176.05C60.4753 175.289 60.7174 174.372 60.6461 173.451H60.662Z" fill="white"/>
<path d="M70.0879 181.494V146.852H75.8432V161.478C76.0193 160.905 76.171 160.436 76.2984 160.071C76.3973 159.782 76.5137 159.499 76.6469 159.223L82.346 146.852H88.0395L81.6434 158.693L88.7701 181.494H82.8069L77.9565 164.067L75.8376 167.973V181.494H70.0879Z" fill="white"/>
<path d="M92.9258 181.494V146.852H107.456V151.874H98.4965V160.959H104.954V165.981H98.4965V176.338H107.456V181.494H92.9258Z" fill="white"/>
<path d="M111.484 181.494V146.852H119.249C122.251 146.852 124.476 147.627 125.924 149.179C127.372 150.73 128.094 153.131 128.091 156.383V171.868C128.091 175.238 127.404 177.69 126.031 179.223C124.658 180.756 122.479 181.513 119.494 181.494H111.484ZM116.895 176.388H119.66C120.056 176.42 120.455 176.357 120.825 176.203C121.195 176.049 121.527 175.809 121.794 175.501C122.322 174.693 122.569 173.72 122.493 172.744V156.059C122.493 154.636 122.141 153.598 121.426 152.934C120.711 152.27 119.622 151.935 118.117 151.935H116.869L116.895 176.388Z" fill="white"/>
<path d="M147.26 181.494V146.852H155.3C158.53 146.852 161.028 147.64 162.793 149.218C164.559 150.795 165.44 153.027 165.436 155.914C165.471 157.483 165.118 159.038 164.402 160.456C163.654 161.805 162.558 162.956 161.214 163.804C162.726 164.534 163.968 165.675 164.777 167.08C165.605 168.686 166.003 170.458 165.934 172.242C165.934 175.404 165.143 177.742 163.559 179.256C161.976 180.77 159.525 181.516 156.208 181.494H147.26ZM153.281 161.26H155.733C156.242 161.278 156.747 161.174 157.201 160.956C157.654 160.738 158.04 160.414 158.322 160.015C159.002 158.965 159.325 157.744 159.248 156.517C159.248 154.872 158.936 153.682 158.31 152.945C157.685 152.209 156.661 151.837 155.24 151.829H153.281V161.26ZM153.281 176.483H155.899C156.447 176.523 156.996 176.435 157.498 176.225C158 176.016 158.438 175.692 158.773 175.283C159.367 174.485 159.688 173.229 159.688 171.522C159.688 169.636 159.345 168.289 158.661 167.482C157.976 166.675 156.836 166.271 155.24 166.271H153.281V176.483Z" fill="white"/>
<path d="M169.982 181.466V146.852H177.126C180.002 146.852 182.225 147.64 183.794 149.216C185.364 150.792 186.147 153.022 186.144 155.907C186.176 157.475 185.86 159.03 185.22 160.445C184.558 161.796 183.582 162.947 182.385 163.791C183.73 164.519 184.834 165.66 185.553 167.064C186.289 168.669 186.643 170.439 186.582 172.222C186.582 175.381 185.878 177.718 184.47 179.231C183.066 180.736 180.88 181.494 177.929 181.494L169.982 181.466ZM175.336 161.248H177.538C177.99 161.267 178.44 161.162 178.843 160.945C179.246 160.727 179.589 160.403 179.84 160.005C180.445 158.955 180.732 157.736 180.663 156.509C180.663 154.866 180.385 153.676 179.829 152.94C179.273 152.204 178.363 151.833 177.1 151.825H175.357L175.336 161.248ZM175.336 176.459H177.659C178.147 176.5 178.636 176.412 179.083 176.203C179.531 175.993 179.921 175.669 180.22 175.261C180.759 174.461 181.028 173.209 181.028 171.502C181.028 169.618 180.725 168.272 180.12 167.465C179.514 166.659 178.501 166.256 177.078 166.256H175.336V176.459Z" fill="white"/>
<path d="M208.93 177.353C209.124 177.686 209.425 177.958 209.795 178.134C210.229 178.312 210.703 178.396 211.18 178.378H211.488V183.528H210.793C209.554 183.568 208.323 183.343 207.2 182.872C206.215 182.412 205.406 181.698 204.878 180.823C204.116 181.202 203.303 181.492 202.458 181.685C201.6 181.877 200.718 181.971 199.833 181.966C196.946 181.966 194.706 181.151 193.114 179.522C191.521 177.892 190.726 175.586 190.73 172.605V155.351C190.73 152.695 191.589 150.615 193.307 149.112C195.025 147.609 197.404 146.855 200.444 146.852C203.311 146.852 205.583 147.625 207.261 149.172C208.938 150.718 209.775 152.825 209.771 155.492V172.746C209.784 173.642 209.72 174.537 209.577 175.424C209.455 176.089 209.237 176.738 208.93 177.353ZM203.408 173.814V155.026C203.487 154.096 203.202 153.17 202.603 152.408C201.966 151.849 201.109 151.535 200.217 151.535C199.325 151.535 198.469 151.849 197.831 152.408C197.23 153.17 196.944 154.095 197.021 155.026V173.814C196.946 174.749 197.232 175.679 197.831 176.448C198.465 177.014 199.323 177.332 200.217 177.332C201.112 177.332 201.97 177.014 202.603 176.448C203.2 175.679 203.484 174.749 203.408 173.814Z" fill="white"/>
<path d="M49.0253 195.128H52.2773V203.644H55.5356V195.128H58.8129V216H55.5356V206.659H52.252V216H49L49.0253 195.128Z" fill="white"/>
<path d="M61.5762 216L65.1294 195.128H69.4778L73.0246 216H69.5997L68.9263 211.481H65.5655L64.8472 216H61.5762ZM65.9824 208.519H68.5478L67.4126 199.805H67.1817L65.9824 208.519Z" fill="white"/>
<path d="M82.8359 216V195.128H87.5823L89.9076 206.692C90.0066 207.183 90.0776 207.678 90.1202 208.176C90.1682 208.704 90.1956 209.252 90.1956 209.826C90.1954 209.327 90.2251 208.83 90.2848 208.335C90.3397 207.827 90.422 207.286 90.5317 206.718L92.754 195.128H97.5553V216H94.215V202.807C94.215 202.431 94.215 201.923 94.2836 201.289C94.3522 200.656 94.4002 199.97 94.4894 199.165C94.4345 199.442 94.3659 199.825 94.2767 200.32C94.1053 201.25 93.9887 201.857 93.9269 202.121L91.0187 215.974H89.2217L86.4781 202.121C86.3683 201.566 86.2586 200.953 86.1351 200.293C86.0117 199.634 85.9362 199.258 85.9156 199.178C85.9911 199.891 86.0528 200.557 86.094 201.157C86.1351 201.758 86.1557 202.325 86.1557 202.8V215.994L82.8359 216Z" fill="white"/>
<path d="M100.818 216L104.368 195.128H108.718L112.267 216H108.846L108.173 211.481H104.816L104.098 216H100.818ZM105.22 208.519H107.782L106.648 199.805H106.443L105.22 208.519Z" fill="white"/>
<path d="M115.031 195.128H118.283V203.644H121.561V195.128H124.844V216H121.561V206.659H118.283V216H115.031V195.128Z" fill="white"/>
<path d="M137.922 195.128V198.149H131.923V216H128.109V195.128H137.922Z" fill="white"/>
<path d="M137.93 216L141.483 195.128H145.838L149.378 216H145.953L145.28 211.481H141.919L141.226 216H137.93ZM142.336 208.519H144.901L143.766 199.805H143.561L142.336 208.519Z" fill="white"/>
<path d="M156.594 195.128H160.156L164.099 216H160.747L158.775 203.644C158.677 203.018 158.605 202.325 158.532 201.5C158.46 200.676 158.421 199.838 158.388 198.928V199.297C158.388 200.016 158.388 200.715 158.302 201.415C158.217 202.114 158.151 202.859 158.02 203.644L155.982 216H152.65L156.594 195.128Z" fill="white"/>
<path d="M98.3932 113.518C96.854 113.387 98.4596 126.707 97.2521 126.306C96.0445 125.906 93.384 121.571 92.7006 117.177C92.0172 112.783 92.3489 92.5262 91.7916 88.9334C91.2343 85.3406 74.6275 62.7526 78.7609 49.7409C78.7609 49.7409 83.4053 43.4355 73.128 41.5767C68.1121 40.6703 45.262 35.5471 31.1365 26.0888C16.414 16.2365 11 0.0656327 11 0.0656327C11 0.0656327 13.0435 -0.781669 18.5106 3.61246C23.9776 8.00659 45.8193 27.258 77.0558 24.7358C77.0558 24.7358 95.8322 17.3006 105.22 17.1298H106.78C116.168 17.3006 134.944 24.7358 134.944 24.7358C166.181 27.2711 188.022 8.00659 193.489 3.61246C198.956 -0.781669 201 0.0656327 201 0.0656327C201 0.0656327 195.579 16.23 180.857 26.0888C166.725 35.5471 143.888 40.6703 138.872 41.5767C128.628 43.4355 133.239 49.7409 133.239 49.7409C136.882 60.4997 120.268 85.761 120.208 88.9071C120.149 92.0533 119.983 112.789 119.299 117.15C118.616 121.512 115.319 129.065 114.124 128.868C112.93 128.671 115.1 114.024 113.607 113.492C112.114 112.96 107.224 123.042 105.957 123.042C104.69 123.042 99.9259 113.65 98.3932 113.518Z" fill="white"/>
</g>
<defs>
<clipPath id="clip0_236_139">
<rect width="212" height="216" fill="white"/>
</clipPath>
</defs>
</svg>
