<svg xmlns:xlink="http://www.w3.org/1999/xlink"  xmlns="http://www.w3.org/2000/svg" width="35" height="33" viewBox="0 0 35 33" fill="none">
<g clip-path="url(#clip0_2081_1483)">
<path d="M23.2349 32.8528L23.1987 32.8293C22.9199 32.65 22.8221 32.4295 22.9052 32.1757C23.0255 31.8219 23.3698 31.8219 23.5175 31.8219C24.7036 31.8219 25.8884 31.8219 27.0719 31.8219H29.8849C30.3485 31.8219 30.4571 31.7386 30.5696 31.2986C31.6461 27.1364 32.7191 22.9726 33.7885 18.8071C33.8295 18.6484 33.854 18.4259 33.7376 18.274C33.6212 18.1221 33.405 18.0927 33.2485 18.0927H29.3362C29.1807 19.6714 28.4559 20.9277 27.1844 21.8283C26.4271 22.3629 25.5207 22.6444 24.5944 22.6329C24.523 22.6329 24.4506 22.6329 24.3773 22.628C22.2636 22.5407 19.9406 20.9238 19.7225 18.0917H15.8718C15.6077 18.0917 15.4258 18.1545 15.3309 18.277C15.236 18.3995 15.2214 18.5945 15.2879 18.8541L17.2127 26.3253L17.9845 29.3162L18.495 31.3006C18.6036 31.7259 18.7278 31.8239 19.1591 31.8239H20.5128H21.7677H21.7804C21.9477 31.8239 22.2577 31.8239 22.3908 32.1531C22.5238 32.4824 22.2861 32.7009 22.157 32.8166L22.1159 32.8538H18.721L18.7004 32.8479C18.0608 32.6519 17.6656 32.2286 17.4905 31.5426C16.8 28.835 16.0919 26.0843 15.4072 23.4237C15.0297 21.9577 14.6524 20.4913 14.2755 19.0247C14.1435 18.5112 14.2286 18.0241 14.5142 17.6527C14.7998 17.2813 15.2556 17.0697 15.7857 17.0648H16.2493V14.9089C16.2493 13.2704 16.2493 11.6319 16.2493 9.99339C16.2493 9.4603 16.4831 9.22021 17.0073 9.21629C17.2949 9.21629 17.5825 9.21629 17.87 9.21629C18.1576 9.21629 18.451 9.21629 18.7405 9.21629C19.2482 9.22119 19.4888 9.45932 19.4985 9.96791C19.4985 10.0953 19.4985 10.2217 19.4985 10.3511V10.3824H20.6869V9.37014C20.6869 8.75571 20.8972 8.54698 21.5183 8.546H22.8984V8.48818C22.9052 8.35295 22.9121 8.22653 22.9199 8.0962C22.9395 7.77281 23.1938 7.6317 23.3454 7.5484L23.3786 7.52979H25.6987L25.7309 7.54743C26.0302 7.71108 26.1721 7.98155 26.1535 8.35099C26.1427 8.55776 26.1447 8.76845 26.1476 8.98992C26.1476 9.0448 26.1476 9.10066 26.1476 9.15749H27.5688C28.1351 9.15749 28.3669 9.39562 28.3698 9.9689C28.3698 10.2563 28.3698 10.5435 28.3698 10.8303V11.3477H29.5602V11.1429C29.5602 10.8852 29.5602 10.6294 29.5602 10.3726C29.5602 9.83072 29.8008 9.58867 30.3358 9.58867H31.2161H32.0426C32.5541 9.58867 32.7957 9.82974 32.8025 10.3403C32.8084 10.7627 32.8025 11.1478 32.8025 11.5162C32.7967 11.8681 32.6069 12.0915 32.3057 12.1042H32.2881C31.9858 12.1042 31.7863 11.8739 31.7785 11.5162C31.7785 11.284 31.7785 11.0537 31.7785 10.8087C31.7785 10.747 31.7785 10.6833 31.7785 10.6196H30.6048V17.051H31.7785C31.7785 17.051 31.7785 14.1572 31.7785 13.2753C31.7785 12.8019 31.9506 12.5619 32.29 12.5619H32.3018C32.8064 12.5697 32.8064 13.092 32.8064 13.2635V17.0648H33.2466C33.7963 17.0648 34.2579 17.2754 34.5465 17.6527C34.835 18.03 34.9142 18.5092 34.7812 19.0247C34.2902 20.9415 33.7982 22.8579 33.3053 24.7741C32.7184 27.0541 32.1316 29.3351 31.5447 31.6171C31.3882 32.2276 31.0097 32.6294 30.3847 32.845L30.3622 32.8528H23.2349ZM23.9733 21.5471C24.1669 21.5825 24.3633 21.6006 24.5602 21.601C24.7463 21.6014 24.9321 21.5834 25.1147 21.5471V8.58128H23.941V10.2315C23.941 12.4214 23.941 14.61 23.941 16.7972C23.941 16.8207 23.941 16.8452 23.941 16.8697C23.9586 16.9883 23.9373 17.1093 23.8804 17.2147C23.8452 17.2666 23.6554 17.5283 23.4295 17.5302C23.2036 17.5322 23.0079 17.2735 22.9708 17.2225C22.912 17.1167 22.89 16.9943 22.9082 16.8746C22.9082 16.8501 22.9082 16.8266 22.9082 16.8041C22.9082 14.8487 22.9082 12.8934 22.9082 10.9381V9.59749H21.7188C21.7188 13.1377 21.7188 16.6783 21.7188 20.2192C21.7164 20.25 21.72 20.281 21.7296 20.3104C22.0554 20.6897 22.4569 20.9965 22.9082 21.2109V20.4946C22.9082 19.953 22.9082 19.4114 22.9082 18.8698C22.9082 18.2711 23.1889 18.1456 23.4236 18.1456C23.6574 18.1456 23.9371 18.273 23.9371 18.8718V19.5235C23.9371 20.1585 23.9371 20.815 23.942 21.4608C23.9474 21.4912 23.958 21.5203 23.9733 21.5471ZM26.1672 21.209C26.553 21.0187 26.9046 20.7657 27.2079 20.4603C27.2578 20.4138 27.2967 20.3566 27.3216 20.293C27.3465 20.2294 27.3568 20.161 27.3516 20.0928C27.3516 17.4548 27.3516 14.7717 27.3516 12.1777V10.3717C27.3516 10.3491 27.3516 10.3256 27.3516 10.3031C27.3541 10.2793 27.3541 10.2553 27.3516 10.2315C27.3459 10.2185 27.338 10.2066 27.3282 10.1962C27.0729 10.1913 26.8244 10.1904 26.6132 10.1904H26.1672V21.209ZM19.9299 17.0638C20.3465 17.0638 20.5696 17.1725 20.6801 17.4616V11.4437H19.523V17.0638H19.9299ZM28.3943 17.444C28.5117 17.1902 28.7386 17.0677 29.0887 17.0648H29.5533V12.4198H28.3943V17.444ZM18.453 17.052V10.2619H17.2959V17.051L18.453 17.052Z" fill="black"/>
<path d="M21.0246 16.457C21.5361 16.608 21.9831 16.8716 22.1278 17.387C22.23 17.7461 22.2378 18.1255 22.1503 18.4885C21.1889 22.0457 20.1942 25.5951 19.2161 29.1475C19.0302 29.8177 18.8503 30.49 18.6634 31.1593C18.3524 32.2784 17.5739 32.8752 16.4138 32.8762C13.2781 32.8762 10.1423 32.8762 7.00656 32.8762C5.86806 32.8762 5.07874 32.2794 4.77553 31.1858C3.60182 26.9517 2.43138 22.717 1.26419 18.4816C0.996192 17.5105 1.362 16.8529 2.4066 16.4453C2.21098 15.6995 2.01536 14.9489 1.81388 14.1992C1.24658 12.0766 0.678312 9.9534 0.109064 7.82951C-0.177517 6.75646 0.0777652 6.15477 1.02651 5.59325C1.11454 5.54132 1.16834 5.36296 1.16931 5.24243C1.16298 4.32147 1.3923 3.41425 1.83539 2.60733C2.35085 1.67637 3.45218 1.47254 4.25617 2.17419C4.47428 2.3643 4.6386 2.61517 4.8753 2.89347C4.97311 2.71512 5.00832 2.64653 5.04353 2.57695C5.89838 0.894366 7.69122 0.190757 9.47037 0.826748C9.53107 0.843585 9.59483 0.846246 9.65672 0.834523C9.71861 0.822801 9.77699 0.797007 9.82737 0.759131C10.9659 -0.440335 12.5924 -0.198285 13.3133 1.28635C13.3289 1.31869 13.3465 1.34907 13.3827 1.41668C14.0459 1.1031 14.7149 1.06978 15.3663 1.45C16.0177 1.83022 16.3248 2.40252 16.4168 3.18746L16.7102 2.94541C17.5245 2.28125 18.5184 1.87632 19.5642 1.78272C20.61 1.68911 21.6599 1.91111 22.5787 2.42016C23.5236 2.94835 23.7231 4.0557 23.0032 4.87005C22.813 5.06759 22.6105 5.25285 22.3968 5.4247C22.7284 5.81178 23.0629 6.11067 23.2849 6.48403C23.5275 6.88777 23.4463 7.35619 23.326 7.80403C22.5846 10.5616 21.8455 13.3199 21.1087 16.0788C21.0744 16.2023 21.0559 16.3228 21.0246 16.457ZM11.7542 17.6144H2.93183C2.34498 17.6144 2.27065 17.7065 2.42127 18.2533C3.57411 22.4299 4.72793 26.6061 5.88273 30.782C6.07835 31.4827 6.36591 31.7022 7.08676 31.7022H16.3483C17.0682 31.7022 17.3606 31.4798 17.5543 30.782C18.7084 26.6068 19.8616 22.4308 21.0138 18.2543C21.1644 17.7084 21.0881 17.6144 20.5032 17.6144H11.7542ZM7.09752 16.3963C7.14349 16.4169 7.16501 16.4345 7.18653 16.4345C11.3219 16.4345 15.4573 16.4329 19.5926 16.4296C19.6846 16.4296 19.8332 16.2885 19.8606 16.1866C20.6568 13.2545 21.4445 10.3206 22.2237 7.38461C22.345 6.92795 22.21 6.70746 21.7435 6.6271C21.36 6.56047 20.9678 6.54185 20.5795 6.51245C18.0583 6.31711 15.5356 6.8721 13.328 8.1078C11.1204 9.3435 9.3262 11.2049 8.17049 13.4584C7.68427 14.3856 7.32345 15.3736 7.09752 16.3963ZM5.79862 16.4276C6.13997 15.4683 6.46763 14.5657 6.77671 13.6534C6.78621 13.5878 6.78124 13.5209 6.76214 13.4574C6.74304 13.3939 6.71029 13.3353 6.66618 13.2859C6.23974 12.8332 5.79275 12.399 5.35261 11.9581C5.30957 11.9149 5.26556 11.8728 5.2235 11.8287C4.52123 11.0947 4.51341 10.0168 5.20394 9.3259C5.89447 8.63503 6.9645 8.62915 7.70003 9.33962C8.05801 9.68457 8.38469 10.0589 8.66932 10.3558L10.605 8.42336C8.72044 7.22437 6.54991 6.55271 4.31877 6.47815C3.49326 6.45071 2.66188 6.53107 1.83735 6.6075C1.20746 6.66532 1.0852 6.88385 1.23876 7.48946C1.2505 7.53748 1.25832 7.58746 1.27104 7.63254C1.75617 9.44742 2.2413 11.2623 2.72644 13.0772C3.02573 14.193 3.32698 15.3105 3.63019 16.4296L5.79862 16.4276ZM9.37354 6.42523C9.37354 5.01214 9.38039 3.64412 9.3618 2.27708C9.3618 2.16733 9.21118 2.01249 9.09478 1.96056C7.82816 1.3961 6.31994 2.13205 5.95316 3.47361C5.9182 3.57016 5.91441 3.67527 5.94231 3.77409C5.97022 3.87292 6.02841 3.96046 6.10867 4.02434C6.56055 4.45258 7.03199 4.86906 7.42323 5.35022C7.92792 5.96759 8.62334 6.17829 9.37354 6.42523ZM12.3029 4.63094C12.3029 3.79993 12.3029 2.96501 12.3029 2.13793C12.3029 1.74595 12.1621 1.44314 11.8051 1.27067C11.1987 0.976681 10.5531 1.40394 10.5482 2.11441C10.5384 3.44617 10.5825 4.77989 10.5287 6.11067C10.5023 6.76332 10.6069 7.24546 11.273 7.47379C11.3297 7.49339 11.3708 7.55512 11.4285 7.57178C11.5772 7.6051 11.7571 7.68448 11.8735 7.63254C12.0887 7.53454 12.3254 7.44243 12.3117 7.0916C12.2814 6.26648 12.3029 5.44528 12.3029 4.628V4.63094ZM16.185 5.71869C17.7186 5.35708 19.2258 5.19441 20.7566 5.34434C20.8271 5.34979 20.8971 5.32806 20.9522 5.28359C21.3591 4.87984 21.7738 4.481 22.1543 4.05276C22.3284 3.85677 22.3205 3.62648 22.0467 3.47263C19.6503 2.12225 16.8765 3.48537 16.184 5.71575L16.185 5.71869ZM13.4786 6.70942C13.9324 6.51343 14.3334 6.35076 14.7305 6.17535C14.7912 6.14135 14.8382 6.08732 14.8636 6.02247C15.2303 5.09936 15.2978 4.13508 15.2245 3.15708C15.2096 2.93554 15.1096 2.7284 14.9454 2.57926C14.7812 2.43011 14.5657 2.3506 14.3442 2.35744C14.234 2.35497 14.1243 2.37432 14.0215 2.41438C13.9188 2.45443 13.8249 2.51442 13.7453 2.59088C13.6657 2.66735 13.602 2.7588 13.5577 2.85999C13.5134 2.96119 13.4895 3.07014 13.4874 3.1806C13.4668 4.33597 13.4786 5.4933 13.4786 6.70648V6.70942ZM5.82307 5.36002C5.44162 4.98666 5.06701 4.62212 4.69533 4.25463C4.32366 3.88715 3.94416 3.48831 3.5539 3.1218C3.371 2.95031 3.11474 2.7945 2.93086 3.08457C2.49658 3.77053 2.3264 4.52804 2.36356 5.36002H5.82307ZM7.42812 12.3598L8.06583 11.3495C7.65308 10.9418 7.26184 10.542 6.85496 10.1598C6.59576 9.91583 6.2681 9.92368 6.03825 10.1491C5.8084 10.3745 5.77123 10.6978 5.99619 10.933C6.45296 11.4152 6.93809 11.8728 7.42812 12.3569V12.3598Z" fill="black"/>
<path d="M11.7538 17.6147H20.5028C21.0896 17.6147 21.164 17.7127 21.0133 18.2547C19.8605 22.4312 18.707 26.6071 17.5529 30.7824C17.3572 31.4801 17.0638 31.7026 16.3469 31.7026H7.0873C6.36644 31.7026 6.07693 31.4831 5.88327 30.7824C4.72977 26.6058 3.57563 22.4296 2.42083 18.2537C2.2702 17.7069 2.34454 17.6147 2.93139 17.6147H11.7538Z" fill="white"/>
<path d="M7.0957 16.3967C7.32239 15.3733 7.68421 14.3846 8.1716 13.4569C9.32732 11.2034 11.1215 9.342 13.3291 8.1063C15.5367 6.8706 18.0594 6.31561 20.5806 6.51095C20.9719 6.54035 21.3631 6.55897 21.7446 6.62561C22.2111 6.70597 22.3461 6.92645 22.2248 7.38311C21.4423 10.3191 20.6546 13.253 19.8617 16.1851C19.8344 16.2831 19.6857 16.4281 19.5937 16.4281C15.4584 16.4392 11.323 16.4408 7.18764 16.433C7.16319 16.435 7.14167 16.4212 7.0957 16.3967Z" fill="white"/>
<path d="M5.79939 16.4279H3.62705C3.32449 15.3075 3.02324 14.19 2.72329 13.0755C2.23685 11.2606 1.75172 9.44571 1.26789 7.63083C1.25518 7.58379 1.24735 7.53283 1.23562 7.48776C1.08206 6.8841 1.20432 6.66557 1.83421 6.6058C2.65874 6.52936 3.49011 6.449 4.31562 6.47644C6.54676 6.551 8.7173 7.22266 10.6018 8.42165L8.66617 10.3541C8.38448 10.0601 8.05486 9.68286 7.69688 9.33791C6.96136 8.62745 5.89524 8.63038 5.2008 9.32419C4.50635 10.018 4.51613 11.0881 5.22036 11.827C5.26241 11.8711 5.30643 11.9132 5.34947 11.9564C5.78961 12.3973 6.23659 12.8315 6.66304 13.2842C6.70715 13.3336 6.7399 13.3922 6.759 13.4556C6.77809 13.5191 6.78306 13.5861 6.77357 13.6517C6.4684 14.565 6.14074 15.4685 5.79939 16.4279Z" fill="white"/>
<path d="M9.37352 6.42554C8.62333 6.18153 7.92791 5.97084 7.42321 5.34759C7.03198 4.86643 6.56054 4.44995 6.10866 4.0217C6.0284 3.95782 5.97021 3.87028 5.9423 3.77145C5.91439 3.67263 5.91819 3.56752 5.95314 3.47097C6.31993 2.12941 7.82814 1.39346 9.09477 1.95792C9.21116 2.00985 9.36081 2.16469 9.36179 2.27444C9.38037 3.64148 9.37352 5.0095 9.37352 6.42554Z" fill="white"/>
<path d="M12.3023 4.62823C12.3023 5.44748 12.2808 6.26672 12.3121 7.08498C12.3258 7.43581 12.0891 7.5289 11.8739 7.62592C11.7575 7.67786 11.5805 7.59848 11.4289 7.56516C11.3731 7.55242 11.3311 7.49068 11.2733 7.46717C10.6073 7.23884 10.5026 6.7567 10.529 6.10405C10.5828 4.77327 10.5388 3.43955 10.5486 2.10779C10.5535 1.39732 11.199 0.969079 11.8054 1.26405C12.1624 1.43652 12.3043 1.74324 12.3033 2.13131C12.3003 2.96623 12.3023 3.79723 12.3023 4.62823Z" fill="white"/>
<path d="M16.1836 5.71621C16.8751 3.48093 19.649 2.12271 22.0521 3.47015C22.326 3.624 22.3338 3.85527 22.1597 4.05028C21.7792 4.47852 21.3645 4.87736 20.9576 5.28111C20.9025 5.32558 20.8326 5.34731 20.762 5.34186C19.2255 5.19193 17.7182 5.3546 16.1836 5.71621Z" fill="white"/>
<path d="M13.4765 6.70688C13.4765 5.49369 13.4648 4.33637 13.4824 3.17904C13.4845 3.06858 13.5084 2.95963 13.5527 2.85843C13.5969 2.75724 13.6607 2.66579 13.7403 2.58932C13.8199 2.51285 13.9137 2.45287 14.0165 2.41281C14.1193 2.37275 14.2289 2.35341 14.3392 2.35588C14.5607 2.34903 14.7762 2.42855 14.9404 2.57769C15.1046 2.72684 15.2046 2.93398 15.2194 3.15552C15.2928 4.13548 15.2253 5.09779 14.8585 6.02091C14.8332 6.08576 14.7862 6.13979 14.7255 6.17378C14.3313 6.34821 13.9323 6.51481 13.4765 6.70688Z" fill="white"/>
<path d="M5.82189 5.35745H2.36238C2.32521 4.52547 2.4954 3.766 2.92967 3.08199C3.11355 2.78801 3.36981 2.94774 3.55271 3.11923C3.94395 3.48574 4.31269 3.87478 4.69415 4.25206C5.0756 4.62934 5.44043 4.98409 5.82189 5.35745Z" fill="white"/>
<path d="M7.42712 12.3572C6.93807 11.8731 6.44903 11.4155 5.99519 10.9324C5.77023 10.6952 5.81131 10.364 6.03725 10.1484C6.26319 9.93282 6.59476 9.91519 6.85396 10.1592C7.26084 10.5414 7.65208 10.9432 8.06483 11.3489L7.42712 12.3572Z" fill="white"/>
</g>
<defs>
<clipPath id="clip0_2081_1483">
<rect width="35" height="33" fill="white"/>
</clipPath>
</defs>
</svg>