<svg xmlns:xlink="http://www.w3.org/1999/xlink"  width="30" height="35" viewBox="0 0 30 35" fill="none" xmlns="http://www.w3.org/2000/svg">
<g clip-path="url(#clip0_2081_1480)">
<path d="M6.43876 34.9998C6.14618 34.85 5.83284 34.7301 5.56796 34.5443C5.16459 34.2626 4.98108 33.8269 4.85817 33.3654C3.57939 28.5578 2.30147 23.7501 1.02442 18.9425C1.00065 18.8665 0.982422 18.789 0.96989 18.7104C0.927476 18.368 1.0677 18.1428 1.36028 18.0897C1.67276 18.0341 1.87358 18.183 1.9662 18.4699C2.06228 18.7729 2.13932 19.0829 2.22069 19.3911C2.53144 20.5572 2.85084 21.7207 3.14341 22.8911C3.21699 23.1882 3.33817 23.2824 3.65239 23.2815C8.18121 23.2707 12.7097 23.2684 17.238 23.2746C17.399 23.2697 17.5601 23.2794 17.7193 23.3038C17.8356 23.3181 17.9421 23.3758 18.017 23.465C18.0919 23.5542 18.1297 23.6683 18.1226 23.7841C18.132 23.8996 18.0966 24.0142 18.0236 24.1049C17.9507 24.1955 17.8456 24.2553 17.7297 24.2721C17.571 24.2989 17.4101 24.3104 17.2493 24.3063C12.8358 24.3063 8.42127 24.3063 4.00555 24.3063H3.52774C3.81425 25.3859 4.08865 26.4176 4.36737 27.4664H25.6525C25.9278 26.433 26.2048 25.3937 26.4939 24.3063H20.4139C19.859 24.3063 19.595 24.1351 19.5933 23.7926C19.5916 23.4502 19.853 23.2789 20.4104 23.2789C22.4152 23.2789 24.4208 23.2738 26.4255 23.2849C26.6956 23.2849 26.7977 23.1993 26.8652 22.9425C27.5421 20.3543 28.2355 17.7712 28.921 15.1848C29.0647 14.6454 28.9279 14.2687 28.5055 14.0392C28.3858 13.9738 28.2519 13.938 28.1151 13.9348C26.0873 13.9228 24.0595 13.9162 22.0317 13.9151C21.9781 13.9203 21.9251 13.9303 21.8733 13.945C21.7088 16.0709 20.787 17.8029 19.0497 19.076C17.8159 20.0004 16.2928 20.4662 14.7468 20.3919C11.4099 20.2532 8.42012 17.719 8.13274 13.9356C8.028 13.9279 7.91807 13.9134 7.80727 13.9134C5.92892 13.9134 4.05086 13.9134 2.17308 13.9134C1.26247 13.9134 0.890254 14.3902 1.11444 15.2558C1.21399 15.6411 1.32392 16.0264 1.4174 16.4125C1.49704 16.7447 1.34556 17.0118 1.05905 17.0846C0.772536 17.1574 0.518045 17.0067 0.427157 16.6942C0.281736 16.1916 0.131124 15.6865 0.0350423 15.1736C-0.17703 14.0315 0.595086 13.0409 1.76624 12.9082C1.87877 12.8954 1.99044 12.8731 2.13066 12.8509C2.03199 11.9562 1.93504 11.0769 1.83896 10.1967C1.77663 9.63082 1.70911 9.0649 1.65544 8.49812C1.6139 8.04949 1.76884 7.81319 2.10037 7.78665C2.43189 7.76011 2.6405 7.96301 2.68897 8.39709C2.83612 9.72072 2.97808 11.0461 3.12177 12.3705C3.13909 12.5272 3.16679 12.683 3.19535 12.8783C3.44836 12.8908 3.70191 12.8873 3.95448 12.868C4.01189 12.8532 4.06484 12.8249 4.10884 12.7856C4.15284 12.7462 4.1866 12.697 4.20724 12.642C4.49722 11.0521 4.77161 9.45873 5.0486 7.86627C5.22172 6.8794 5.3934 5.89224 5.56364 4.9048C5.58268 4.7935 5.59826 4.68134 5.6225 4.52894C5.1897 4.48271 4.76815 4.43648 4.35006 4.39538C3.81166 4.34315 3.27239 4.28836 2.73312 4.24555C2.35572 4.21644 2.24665 4.32175 2.27781 4.69675C2.3159 5.1625 2.38342 5.62483 2.41977 6.09058C2.45093 6.48442 2.25877 6.73271 1.94023 6.74897C1.64506 6.76353 1.42866 6.53921 1.38711 6.1685C1.33517 5.70445 1.27285 5.24127 1.23996 4.77552C1.16552 3.73699 1.8251 3.12398 2.87854 3.22757C3.79521 3.31833 4.71362 3.39881 5.63029 3.48442C5.6753 3.48871 5.72118 3.48442 5.80947 3.48442C5.92632 2.81234 6.05097 2.14538 6.15571 1.47586C6.23102 0.998979 6.3496 0.551206 6.82482 0.311481C6.99489 0.218535 7.18209 0.160307 7.37534 0.140248C8.36443 0.0831702 9.3541 0.0369378 10.3444 0.00154971C11.3372 -0.0318407 11.8678 0.577748 11.7033 1.54264C11.5568 2.39538 11.4125 3.24841 11.2705 4.10172C11.27 4.14532 11.2735 4.18888 11.2809 4.23185L12.2392 4.39624C12.2392 4.04264 12.2392 3.71816 12.2392 3.39453C12.2487 2.51781 12.8511 1.99983 13.7306 2.1274C14.436 2.22929 15.1398 2.34915 15.8435 2.46987C16.2382 2.53579 16.4373 2.76696 16.3871 3.08459C16.3395 3.38425 16.098 3.54264 15.7024 3.48699C15.042 3.39453 14.3841 3.2798 13.7254 3.17021C13.3263 3.10429 13.2796 3.13853 13.277 3.53322C13.277 3.86285 13.277 4.19333 13.277 4.54864C14.1019 4.7036 14.2534 5.28408 14.2517 5.99898C14.243 10.2946 14.243 14.5906 14.2517 18.8868V19.3089C15.3037 19.4418 16.3725 19.3016 17.3531 18.9022V18.5366C17.3531 13.8654 17.3531 9.19361 17.3531 4.52124C17.3487 4.25966 17.3307 3.99848 17.2995 3.7387C17.2657 3.41336 17.4042 3.18134 17.6924 3.11028C17.8235 3.0816 17.9607 3.10527 18.0741 3.17615C18.1876 3.24702 18.2682 3.35935 18.2984 3.4887C18.3728 3.78322 18.3789 4.09401 18.4152 4.39196H20.5619C20.5619 4.10172 20.5619 3.86627 20.5619 3.63083C20.5619 2.99299 20.5498 2.35429 20.5619 1.71645C20.5818 0.87398 21.1462 0.43648 21.9867 0.576035C23.202 0.777519 24.4176 0.973295 25.6335 1.16336C26.3259 1.27381 26.6895 1.67706 26.693 2.3697C26.693 2.98185 26.693 3.59487 26.693 4.21901C27.163 4.21901 27.6105 4.24812 28.0528 4.21387C29.1894 4.12826 30.1986 5.03322 29.6975 6.55805C29.6822 6.61692 29.6552 6.67221 29.6182 6.72073C29.5812 6.76925 29.5348 6.81005 29.4818 6.84077C29.4288 6.87149 29.3701 6.89153 29.3092 6.89972C29.2484 6.90792 29.1864 6.90412 29.127 6.88853C28.8422 6.83288 28.6942 6.63168 28.7081 6.34487C28.715 6.17363 28.7669 6.00754 28.7773 5.83802C28.8007 5.481 28.6163 5.26182 28.2632 5.25326C27.7576 5.23956 27.2521 5.25326 26.699 5.25326V12.8688C26.9298 12.881 27.1612 12.877 27.3915 12.8568C27.4694 12.8457 27.5689 12.7036 27.5871 12.6086C27.8269 11.2986 28.0537 9.98613 28.2848 8.67021C28.303 8.57003 28.3212 8.46901 28.3454 8.36884C28.4276 8.02637 28.6579 7.86028 28.9617 7.91593C29.2508 7.96815 29.4213 8.23185 29.3642 8.56747C29.2499 9.24041 29.127 9.9125 29.0084 10.5854C28.8725 11.356 28.7375 12.1265 28.5981 12.9219L28.8864 13.0529C29.6481 13.3902 30.1727 14.3175 29.939 15.1933C28.3289 21.2435 26.7365 27.2986 25.1617 33.3585C24.9384 34.2147 24.406 34.7284 23.5785 34.9912H22.5398C22.2801 34.8414 22.0992 34.6419 22.1996 34.3243C22.3 34.0067 22.5684 33.9484 22.8653 33.963C22.9111 33.963 22.9579 33.963 23.0038 33.963C23.6789 33.963 23.9672 33.7438 24.1394 33.1017C24.5243 31.6748 24.9069 30.2455 25.2872 28.814C25.3065 28.7207 25.3201 28.6264 25.3279 28.5315H4.6712C4.69457 28.6462 4.70842 28.7353 4.73179 28.8217C5.10343 30.2184 5.47563 31.6148 5.84842 33.0109C6.05443 33.7815 6.30632 33.963 7.12518 33.963C11.5605 33.963 15.9956 33.963 20.4303 33.963C20.7281 33.963 20.9947 34.0092 21.0943 34.3277C21.1938 34.6462 21.0146 34.8414 20.7523 34.993L6.43876 34.9998ZM9.2459 4.95274C9.23638 5.12398 9.22513 5.22672 9.22513 5.32774C9.22513 8.2427 9.22513 11.1582 9.22513 14.0743C9.22351 14.1653 9.22843 14.2563 9.23984 14.3466C9.49952 16.0503 10.3651 17.386 11.7968 18.3508C12.2409 18.6497 12.749 18.8517 13.2684 19.1214V5.60086L9.2459 4.95274ZM21.637 1.55549V12.8466H25.6317C25.6317 11.9099 25.6317 11.0007 25.6317 10.0914C25.6404 7.57432 25.6496 5.05748 25.6594 2.54093C25.6594 2.38168 25.7183 2.21045 25.4422 2.1685C24.1931 1.98014 22.9466 1.76867 21.637 1.55549ZM8.18121 12.8568V12.4408C8.18121 10.0475 8.18121 7.6548 8.18121 5.26268C8.18121 4.28408 8.74645 3.82089 9.71852 3.98528C9.88299 4.01268 10.0492 4.02637 10.2266 4.04692L10.6776 1.41593C10.7399 1.05805 10.7131 1.01781 10.3314 1.03323C9.45711 1.06918 8.58285 1.13682 7.70773 1.14538C7.34331 1.14538 7.2455 1.29264 7.18837 1.61285C6.65429 4.73185 6.1055 7.84829 5.5619 10.9656C5.4537 11.588 5.34897 12.2113 5.23817 12.8586L8.18121 12.8568ZM18.3364 18.3183C19.0516 17.8269 19.6464 17.1833 20.0772 16.4348C20.4093 15.8886 20.5822 15.2622 20.5766 14.6248C20.5498 11.6865 20.5645 8.74812 20.5645 5.81062V5.38596L18.3364 5.4887V18.3183Z" fill="black"/>
</g>
<defs>
<clipPath id="clip0_2081_1480">
<rect width="30" height="35" fill="white"/>
</clipPath>
</defs>
</svg>
