<svg xmlns:xlink="http://www.w3.org/1999/xlink"  width="20" height="35" viewBox="0 0 20 35" fill="none" xmlns="http://www.w3.org/2000/svg">
<path d="M17.0588 1.16667C17.2148 1.16667 17.3645 1.10521 17.4748 0.995812C17.5851 0.886416 17.6471 0.738043 17.6471 0.583333C17.6471 0.428624 17.5851 0.280251 17.4748 0.170854C17.3645 0.0614581 17.2148 0 17.0588 0H10C9.85151 2.57816e-06 9.70852 0.055692 9.59972 0.155893C9.49092 0.256095 9.42435 0.393394 9.41338 0.54024L9.18985 3.5323C4.88985 3.87027 1.47265 6.87086 1.19537 10.594C0.847008 10.7122 0.544558 10.9353 0.330255 11.2322C0.115951 11.529 0.000491919 11.8849 0 12.25V13.4167C0 13.5714 0.0619747 13.7197 0.17229 13.8291C0.282606 13.9385 0.432226 14 0.588235 14H1.23824L3.53301 34.4811C3.54901 34.6238 3.61749 34.7556 3.72536 34.8513C3.83322 34.9471 3.97289 35 4.11765 35H15.8824C16.0271 35 16.1668 34.9471 16.2746 34.8513C16.3825 34.7556 16.451 34.6238 16.467 34.4811L18.7618 14H19.4118C19.5678 14 19.7174 13.9385 19.8277 13.8291C19.938 13.7197 20 13.5714 20 13.4167V12.25C19.9995 11.8849 19.8841 11.529 19.6697 11.2322C19.4554 10.9353 19.153 10.7122 18.8046 10.594C18.5179 6.74508 14.8757 3.66836 10.3715 3.50722L10.5462 1.16667H17.0588ZM9.10184 4.71115L8.66912 10.5H2.38456C2.71044 7.48344 5.53427 5.06304 9.10184 4.71115ZM1.17647 12.25C1.17665 12.0953 1.23868 11.9471 1.34895 11.8377C1.45923 11.7284 1.60875 11.6668 1.76471 11.6667H8.58228L8.49515 12.8333H1.17647V12.25ZM8.40802 14L8.18669 16.9626C6.79588 16.6214 5.12566 16.3569 2.68353 16.3349L2.42191 14H8.40802ZM15.3559 33.8333H4.64412L2.81441 17.5033C5.18375 17.5336 6.74941 17.7973 8.09853 18.1431L7.06044 32.0402C7.05473 32.1166 7.06424 32.1934 7.08845 32.2662C7.11265 32.3389 7.15107 32.4062 7.20151 32.4642C7.25194 32.5223 7.31341 32.5699 7.38241 32.6044C7.4514 32.6388 7.52656 32.6595 7.6036 32.6651C7.61831 32.6662 7.63302 32.6667 7.64772 32.6667C7.7961 32.6665 7.93895 32.6108 8.04763 32.5106C8.15631 32.4104 8.22279 32.2732 8.23375 32.1264L9.25404 18.4672C9.44522 18.5245 9.63574 18.5825 9.82706 18.6409C11.6265 19.1899 13.4835 19.7565 16.9254 19.8261L15.3559 33.8333ZM17.0557 18.6616C13.7153 18.6061 11.9913 18.0806 10.173 17.5258C9.89949 17.4423 9.62441 17.3585 9.34294 17.2761L9.58765 14H17.5781L17.0557 18.6616ZM18.8235 12.8333H9.67478L9.76199 11.6667H18.2353C18.3913 11.6668 18.5408 11.7284 18.651 11.8377C18.7613 11.9471 18.8234 12.0953 18.8235 12.25V12.8333ZM17.6151 10.5H9.84912L10.2845 4.67155C14.1374 4.79063 17.2711 7.31237 17.6151 10.5Z" fill="black"/>
</svg>
