<svg width="302" height="214" viewBox="0 0 302 214" fill="none" xmlns="http://www.w3.org/2000/svg">
<g clip-path="url(#clip0_276_2)">
<rect width="301" height="213" transform="translate(0.5 0.619995)" fill="white" fill-opacity="0.6"/>
<path d="M20.1136 156.262C19.4447 155.164 18.4685 154.285 17.3054 153.733C16.1175 153.126 14.804 152.805 13.4696 152.794C12.0192 152.744 10.59 153.153 9.38762 153.964C8.78971 154.342 8.29727 154.865 7.95603 155.484C7.61479 156.103 7.43583 156.798 7.43583 157.504C7.43583 158.211 7.61479 158.906 7.95603 159.524C8.29727 160.143 8.78971 160.666 9.38762 161.044C10.6867 161.824 12.1121 162.371 13.5998 162.662L17.8121 163.515C20.2139 163.887 22.4754 164.883 24.3692 166.404C25.1149 167.094 25.7066 167.933 26.1056 168.867C26.5047 169.8 26.7022 170.807 26.6853 171.822C26.6972 172.962 26.4569 174.09 25.9815 175.127C25.5061 176.163 24.8073 177.082 23.935 177.818C21.5883 179.81 18.5736 180.842 15.4961 180.708C13.4368 180.677 11.3914 180.366 9.4166 179.783C7.7194 179.23 5.96742 178.862 4.19111 178.685C2.87106 178.833 1.60557 179.293 0.5 180.028C2.4583 177.379 4.01871 174.459 5.13197 171.36C5.3749 172.628 5.8248 173.849 6.46369 174.972C7.42754 176.385 8.83986 177.433 10.4733 177.948C12.0839 178.526 13.7845 178.815 15.4961 178.8C17.1482 178.86 18.7866 178.481 20.2439 177.702C20.972 177.326 21.5786 176.752 21.9936 176.047C22.4085 175.341 22.6149 174.533 22.5889 173.715C22.5832 172.74 22.2747 171.791 21.7059 170.999C20.4902 169.416 18.7514 168.315 16.7989 167.892L10.5601 166.679C8.629 166.418 6.80662 165.633 5.29122 164.41C4.55685 163.728 3.97779 162.897 3.59321 161.972C3.20863 161.047 3.0275 160.051 3.06206 159.05C3.0257 157.838 3.29573 156.636 3.84721 155.555C4.39869 154.475 5.21385 153.55 6.2176 152.866C8.24149 151.48 10.6543 150.772 13.1077 150.844C15.3919 150.915 17.656 151.294 19.8386 151.971C20.6775 152.252 21.5475 152.432 22.4296 152.505C23.4468 152.446 24.4483 152.226 25.397 151.855C23.752 154.171 22.3502 156.65 21.2137 159.252C21.0477 158.179 20.6741 157.149 20.1136 156.218V156.262Z" fill="#1E1E1E"/>
<path d="M52.7312 158.487C52.3492 157.083 51.6287 155.793 50.6323 154.731C49.4727 153.814 48.0109 153.366 46.5359 153.474C46.0003 153.474 45.0884 153.474 43.858 153.633V177.472L47.3031 180.058H35.477L38.9221 177.472V153.633C37.6772 153.531 36.7798 153.474 36.2442 153.474C34.7692 153.366 33.3074 153.814 32.1477 154.731C31.1514 155.795 30.4265 157.084 30.0344 158.487C29.1341 156.055 27.907 153.756 26.3867 151.653H56.4223C54.9004 153.762 53.6596 156.059 52.7312 158.487Z" fill="#1E1E1E"/>
<path d="M75.1523 154.326C73.4786 153.664 71.6808 153.373 69.8834 153.473C68.6965 153.473 67.2634 153.473 65.5409 153.632V163.876H71.8665L74.9786 160.437V169.106L71.8665 165.74H65.5409V178.049C67.0608 178.15 68.132 178.208 68.7833 178.208C70.8853 178.354 72.9947 178.064 74.9786 177.356C76.7114 176.188 78.1204 174.603 79.075 172.747C79.4112 174.195 79.9886 175.578 80.7831 176.835C81.6581 178.023 82.6793 179.096 83.8228 180.028H57.2034L60.605 177.486V165.74C58.779 165.655 56.9795 166.201 55.5098 167.285C56.1467 164.988 57.8547 163.847 60.605 163.847V154.181L57.2034 151.624H82.7806C80.9515 153.61 79.4822 155.898 78.4381 158.386C77.9219 156.658 76.7613 155.195 75.1958 154.297L75.1523 154.326Z" fill="#1E1E1E"/>
<path d="M115.743 180.057L112.414 177.471L108.303 166.303C109.182 165.876 110.148 165.658 111.126 165.667C111.719 165.667 112.139 165.667 112.414 165.667C111.583 164.382 110.99 162.958 110.663 161.463C109.7 162.513 108.594 163.423 107.377 164.165L103.657 154.181L106.016 151.624H95.7969L98.1419 154.181L94.2916 164.454C93.1915 163.37 92.3519 162.561 91.7874 162.026C91.3414 163.274 90.7278 164.455 89.9635 165.537C91.1708 165.668 92.3257 166.101 93.3217 166.794C92.6176 169.433 91.6477 171.994 90.4267 174.437C89.0908 176.83 87.0765 178.775 84.6367 180.028H95.7391C95.0311 179.523 94.4355 178.878 93.9896 178.132C93.5437 177.386 93.2572 176.556 93.148 175.694C93.4541 172.99 94.1615 170.346 95.2469 167.849C97.181 169.872 98.8538 172.129 100.226 174.567C100.826 173.61 101.519 172.715 102.296 171.894L104.612 169.424L107.638 177.457L104.656 180.028L115.743 180.057ZM100.139 171.201C98.8372 169.307 97.4158 167.497 95.8838 165.783L99.5894 156.146L103.744 167.184C102.418 168.407 101.212 169.752 100.139 171.201Z" fill="#1E1E1E"/>
<path d="M136.736 157.042L131.221 162.128C134.3 167.57 136.23 170.849 137.011 171.967C139.158 175.099 141.832 177.836 144.915 180.057C143.188 180.105 141.475 180.377 139.819 180.866C138.154 181.268 136.566 181.936 135.115 182.846C135.177 179.546 134.587 176.267 133.378 173.195C131.987 170.24 130.406 167.378 128.645 164.627L123.68 169.193V177.515L127.212 180.101H115.371L118.787 177.515V154.253L115.371 151.696H127.255L123.723 154.253V166.216L133.291 157.446C133.754 157.102 134.143 156.669 134.437 156.173C134.73 155.677 134.921 155.128 134.999 154.557C134.999 153.401 133.928 152.476 131.8 151.812V151.725H144.625V151.812C144.049 152.024 143.483 152.265 142.931 152.534C140.71 153.804 138.653 155.342 136.809 157.114L136.736 157.042Z" fill="#1E1E1E"/>
<path d="M182.251 177.106L185.725 179.707H173.856L177.344 177.106V166.025C175.808 166.425 174.227 166.629 172.64 166.632C170.556 166.665 168.478 166.392 166.473 165.823V177.106L169.918 179.707H158.092L161.537 177.106V165.664C160.686 165.628 159.837 165.78 159.051 166.11C158.266 166.44 157.562 166.939 156.992 167.571C157.304 166.487 157.875 165.495 158.657 164.681C159.015 164.256 159.457 163.909 159.955 163.66C160.453 163.412 160.996 163.267 161.552 163.236V153.759L158.107 151.216H169.933L166.488 153.759V163.511C168.668 164.273 170.953 164.697 173.262 164.768C174.645 164.707 176.018 164.504 177.358 164.161V153.759L173.87 151.216H185.74L182.266 153.759V177.02L182.251 177.106Z" fill="#1E1E1E"/>
<path d="M211.708 154.945C210.499 153.477 208.957 152.319 207.21 151.565C205.463 150.811 203.561 150.484 201.662 150.61C197.175 150.61 193.754 152.012 191.399 154.815C189.034 157.872 187.856 161.679 188.085 165.535C187.862 169.379 189.01 173.177 191.327 176.255C194.016 178.934 197.66 180.438 201.459 180.438C205.259 180.438 208.903 178.934 211.592 176.255C213.916 173.256 215.082 169.523 214.878 165.737C215.096 161.883 213.976 158.072 211.708 154.945ZM206.28 176.833C205.005 177.919 203.381 178.508 201.706 178.495C200.381 178.484 199.08 178.136 197.928 177.484C196.812 176.895 195.877 176.017 195.221 174.941C194.034 172.889 193.426 169.725 193.426 165.448C193.426 159.669 194.507 155.884 196.668 154.092C197.931 153.006 199.546 152.415 201.213 152.431C202.528 152.434 203.82 152.778 204.962 153.428C206.096 154.028 207.043 154.927 207.698 156.028C208.914 158.138 209.522 161.345 209.522 165.68C209.522 171.343 208.441 175.061 206.28 176.833Z" fill="#1E1E1E"/>
<path d="M237.049 154.252C236.578 153.503 235.956 152.86 235.224 152.362C234.492 151.865 233.664 151.524 232.793 151.362H244.865C243.994 151.524 243.167 151.865 242.434 152.362C241.702 152.86 241.08 153.503 240.609 154.252C239.994 155.934 239.733 157.724 239.842 159.511V171.691C239.911 173.337 239.62 174.979 238.988 176.502C238.631 177.234 238.127 177.885 237.507 178.414C236.887 178.944 236.164 179.34 235.384 179.579C233.722 180.149 231.973 180.422 230.216 180.388C225.256 180.388 222.019 179.136 220.504 176.632C219.587 175.11 219.129 172.466 219.129 168.7V153.847L215.684 151.305H227.495L224.05 153.847V171.503C224 172.754 224.137 174.005 224.455 175.216C225.15 177.402 227.201 178.496 230.607 178.496C233.85 178.496 235.929 177.576 236.846 175.736C237.635 173.499 237.955 171.123 237.787 168.758V159.511C237.9 157.724 237.638 155.933 237.02 154.252H237.049Z" fill="#1E1E1E"/>
<path d="M262.872 155.913C262.178 154.803 261.171 153.923 259.977 153.385C258.797 152.767 257.487 152.44 256.155 152.431C254.699 152.388 253.266 152.802 252.059 153.616C251.464 153.996 250.975 154.52 250.636 155.138C250.297 155.757 250.119 156.451 250.119 157.156C250.119 157.861 250.297 158.554 250.636 159.173C250.975 159.791 251.464 160.315 252.059 160.695C253.361 161.468 254.786 162.015 256.271 162.314C257.718 162.603 259.079 162.891 260.483 163.152C262.894 163.552 265.16 164.572 267.055 166.113C267.8 166.803 268.392 167.642 268.791 168.576C269.19 169.51 269.388 170.517 269.371 171.531C269.38 172.67 269.137 173.797 268.659 174.831C268.181 175.865 267.48 176.781 266.606 177.513C264.27 179.513 261.256 180.546 258.182 180.402C256.122 180.372 254.077 180.061 252.102 179.478C250.407 178.919 248.654 178.551 246.877 178.38C245.556 178.523 244.289 178.984 243.186 179.723C245.141 177.075 246.697 174.154 247.803 171.055C248.044 172.328 248.494 173.554 249.135 174.681C250.104 176.095 251.521 177.143 253.159 177.657C254.769 178.236 256.47 178.524 258.182 178.51C259.828 178.563 261.461 178.184 262.915 177.412C263.648 177.037 264.259 176.461 264.677 175.753C265.095 175.044 265.302 174.231 265.274 173.41C265.261 172.438 264.947 171.495 264.377 170.708C263.168 169.118 261.426 168.015 259.47 167.601L253.231 166.388C251.301 166.124 249.479 165.34 247.962 164.12C247.232 163.431 246.656 162.597 246.272 161.67C245.887 160.744 245.704 159.747 245.733 158.745C245.701 157.534 245.974 156.334 246.528 155.256C247.082 154.178 247.899 153.256 248.903 152.576C250.923 151.181 253.339 150.472 255.793 150.553C258.073 150.625 260.332 151.004 262.51 151.68C263.353 151.962 264.228 152.142 265.115 152.214C266.108 152.149 267.085 151.929 268.01 151.564C266.366 153.878 264.968 156.357 263.841 158.962C263.668 157.89 263.295 156.861 262.741 155.928L262.872 155.913Z" fill="#1E1E1E"/>
<path d="M291.968 153.977C290.294 153.316 288.496 153.025 286.699 153.125C285.512 153.125 284.079 153.125 282.356 153.284V163.527H288.682L291.794 160.088V168.757L288.682 165.391H282.356V177.686C283.876 177.802 284.947 177.859 285.599 177.859C287.7 178.005 289.81 177.715 291.794 177.007C293.523 175.836 294.932 174.252 295.89 172.398C296.226 173.842 296.804 175.22 297.598 176.472C298.468 177.668 299.49 178.746 300.638 179.68H274.004L277.406 177.137V165.391C275.58 165.306 273.78 165.852 272.311 166.937C272.947 164.64 274.655 163.498 277.406 163.498V153.818L274.004 151.275H299.581C297.727 153.255 296.232 155.544 295.167 158.037C294.654 156.308 293.493 154.843 291.924 153.948L291.968 153.977Z" fill="#1E1E1E"/>
<path d="M244.961 3.09902C244.994 2.61343 244.873 2.12976 244.615 1.71624C244.358 1.30272 243.976 0.980266 243.525 0.794182C242.727 0.476268 240.573 -0.358257 231.56 8.74205C229.406 10.888 209.484 29.7244 174.186 29.4661C173.39 27.9232 172.174 26.6354 170.676 25.7505C170.404 25.6116 170.104 25.5368 169.799 25.5318H128.877C128.565 25.5337 128.258 25.6086 127.98 25.7505C126.483 26.6354 125.266 27.9232 124.47 29.4661H123.772C88.9732 29.4661 69.3102 10.888 67.1564 8.74205C58.1226 -0.258909 55.9888 0.575616 55.1911 0.794182C54.7398 0.980266 54.3585 1.30272 54.1009 1.71624C53.8433 2.12976 53.7224 2.61343 53.7553 3.09902C53.8894 7.13145 54.5053 11.1336 55.59 15.0208C55.6496 15.1891 55.73 15.3492 55.8293 15.4977C78.6232 44.4875 111.946 46.7129 120.123 46.7924C120.003 47.7859 119.923 48.7794 119.844 49.7927C109.995 47.8296 99.8914 47.4806 89.9303 48.7595H89.8107C89.2722 48.8588 84.3665 49.9319 83.3295 53.3097C82.7113 55.2967 83.5289 57.2836 85.7026 59.5885C89.2523 63.2246 97.6679 70.7751 106.622 70.7751C108.088 70.7782 109.547 70.5639 110.949 70.1392C114.112 69.2603 116.999 67.5994 119.345 65.3109C119.345 68.9073 119.524 71.5898 119.584 72.5435C119.764 75.822 129.236 85.2402 135.538 91.1415C133.61 91.8063 131.836 92.8532 130.325 94.2191C128.813 95.585 127.595 97.2417 126.744 99.0894C126.032 100.705 125.746 102.474 125.914 104.23C126.081 105.987 126.696 107.671 127.701 109.124C128.469 109.887 129.49 110.346 130.572 110.415C130.884 110.441 131.198 110.441 131.51 110.415C132.823 110.461 134.112 110.054 135.159 109.263C134.255 111.009 133.77 112.941 133.743 114.906C131.012 115.43 128.487 116.719 126.464 118.621C124.171 121.284 125.009 125.556 125.727 127.086C126.684 129.073 130.014 133.742 140.444 133.742H157.395C168.243 133.881 171.673 129.132 172.65 127.086C173.368 125.556 174.206 121.284 171.913 118.621C169.899 116.721 167.379 115.438 164.654 114.926C164.616 113.063 164.188 111.229 163.397 109.541C164.669 110.273 166.15 110.559 167.605 110.355C168.681 110.282 169.694 109.823 170.457 109.064C171.461 107.611 172.076 105.927 172.244 104.171C172.411 102.415 172.126 100.645 171.414 99.0298C169.757 95.4676 166.754 92.7033 163.058 91.3403C169.4 85.3794 178.793 75.8022 179.012 72.5634C179.012 71.6097 179.211 68.9868 179.251 65.4302C181.589 67.6665 184.446 69.2912 187.567 70.1591C188.963 70.5824 190.415 70.7967 191.875 70.795C200.809 70.795 209.244 63.2445 212.794 59.6083C214.988 57.383 215.785 55.2569 215.187 53.3296C214.13 49.9517 209.204 48.8787 208.686 48.7794H208.506C198.599 47.5095 188.55 47.8518 178.753 49.7927C178.753 48.7992 178.573 47.8058 178.474 46.8123C186.45 46.8123 219.973 44.5869 242.807 15.5176C242.922 15.3786 243.004 15.2156 243.046 15.0407C244.17 11.1527 244.813 7.1424 244.961 3.09902ZM129.396 29.1879H169.28C173.269 31.9299 174.984 44.0504 175.422 56.1312C170.957 58.0902 167.229 61.4082 164.773 65.609C161.003 73.1273 158.959 81.3874 158.791 89.7904C157.227 89.3916 155.643 89.0798 154.044 88.8566C154.044 88.8566 151.412 88.6379 149.338 88.6379C147.264 88.6379 144.552 88.8565 144.372 88.8763C142.793 89.0855 141.228 89.3908 139.686 89.7904C139.508 81.3887 137.464 73.1307 133.703 65.609C131.318 61.5456 127.741 58.3073 123.453 56.3298C123.672 44.1696 125.368 31.9498 129.396 29.1879ZM58.1027 13.9876C57.1424 10.5315 56.5739 6.97929 56.4077 3.39711C57.5842 3.7945 60.5357 5.84102 65.262 10.5501C67.4755 12.7557 87.6769 31.8306 123.194 32.0491C121.798 35.9005 120.861 39.9018 120.402 43.9709C113.303 44.0305 80.4977 42.3018 58.1027 13.9876ZM110.212 67.6357C101.218 70.3578 91.4459 61.6748 87.6769 57.7008C86.6798 56.6875 85.6827 55.2371 85.9419 54.0846C86.4205 52.5348 89.2922 51.6008 90.3292 51.3823C100.094 50.1325 110 50.5019 119.644 52.4752L119.525 54.8198C114.154 53.001 108.469 52.2846 102.813 52.7136C98.3061 53.2302 95.6937 54.5218 94.8361 56.6876C94.5999 57.4826 94.5655 58.3236 94.7361 59.1351C94.9067 59.9467 95.2768 60.7032 95.8133 61.337C95.8942 61.4375 95.9964 61.5189 96.1125 61.5754C97.7981 62.6422 99.6885 63.347 101.663 63.6446C103.637 63.9423 105.652 63.8263 107.579 63.3041C111.264 62.0132 114.372 59.4654 116.354 56.1113C117.399 56.3774 118.431 56.6958 119.445 57.0651C119.445 58.3897 119.445 59.7144 119.445 61.039C118.414 62.6771 117.067 64.0948 115.482 65.2102C113.897 66.3255 112.106 67.1162 110.212 67.5363V67.6357ZM114.2 55.7139C112.499 58.3386 109.975 60.3295 107.021 61.3768C105.411 61.7967 103.733 61.8864 102.087 61.6404C100.442 61.3945 98.8637 60.818 97.4486 59.9461C97.1822 59.62 96.9965 59.2362 96.9064 58.8255C96.8164 58.4148 96.8245 57.9886 96.93 57.5816C97.2092 56.8663 98.4057 55.5947 103.132 55.0384C106.8 54.6753 110.501 54.8426 114.12 55.5351L114.2 55.7139ZM123.473 72.4641C123.254 68.4902 123.154 63.7015 123.254 58.8533C126.772 60.642 129.7 63.4009 131.689 66.8012C135.009 73.297 136.944 80.4071 137.373 87.6842C130.732 81.1868 123.812 73.994 123.393 72.2852L123.473 72.4641ZM129.456 107.912C128.679 106.752 128.208 105.416 128.086 104.027C127.964 102.638 128.195 101.24 128.758 99.9636C129.632 98.2476 130.855 96.7311 132.348 95.5101C133.841 94.2891 135.573 93.3902 137.433 92.8702C137.428 95.8902 137.06 98.8988 136.336 101.831L136.236 102.269C135.902 104.256 135.073 106.128 133.823 107.713C133.161 108.087 132.413 108.285 131.652 108.288C130.891 108.292 130.141 108.1 129.476 107.733L129.456 107.912ZM138.33 102.765V102.368C139.138 99.0311 139.526 95.6071 139.487 92.1748C141.091 91.7328 142.723 91.4008 144.372 91.1813C144.372 91.1813 147.085 90.9627 149.099 90.9627C151.113 90.9627 153.546 91.1813 153.566 91.1813C155.237 91.3977 156.89 91.7364 158.511 92.1947C158.483 95.6199 158.871 99.0359 159.668 102.368V102.765C160.012 104.354 160.548 105.895 161.263 107.355C160.427 106.844 159.475 106.552 158.495 106.507C157.515 106.461 156.54 106.665 155.66 107.097H155.56C154.991 107.36 154.504 107.773 154.152 108.291C153.801 108.809 153.598 109.413 153.566 110.038C153.566 112.402 155.779 114.866 158.093 116.277C159.328 117.084 160.748 117.569 162.221 117.687C162.221 117.866 162.221 118.025 162.221 118.184C161.602 121.482 154.882 121.483 154.782 121.483H143.395C143.395 121.483 136.615 121.482 135.997 118.184C135.997 118.025 135.997 117.866 135.897 117.687C137.377 117.573 138.804 117.087 140.045 116.277C142.338 114.866 144.632 112.303 144.552 110.038C144.522 109.412 144.32 108.808 143.968 108.289C143.616 107.77 143.128 107.358 142.558 107.097H142.438C141.491 106.612 140.425 106.406 139.365 106.505C138.305 106.603 137.296 107.002 136.455 107.653C137.324 106.062 137.962 104.356 138.35 102.586L138.33 102.765ZM162.639 115.402C161.52 115.307 160.443 114.931 159.509 114.31C157.514 113.098 155.979 111.19 156.019 109.978C156.033 109.739 156.115 109.509 156.257 109.315C156.398 109.121 156.592 108.972 156.816 108.885C157.405 108.572 158.069 108.428 158.735 108.471C159.401 108.513 160.041 108.739 160.585 109.124C161.325 109.984 161.887 110.982 162.24 112.059C162.592 113.137 162.728 114.273 162.639 115.402ZM135.997 115.402C135.896 114.276 136.02 113.142 136.362 112.064C136.705 110.986 137.258 109.987 137.991 109.124C138.507 108.701 139.158 108.476 139.826 108.488C140.509 108.502 141.184 108.636 141.82 108.885C142.498 109.263 142.598 109.68 142.598 109.978C142.598 111.19 141.102 113.098 139.108 114.31C138.158 114.944 137.058 115.321 135.917 115.402H135.997ZM170.337 125.894C169.579 127.463 166.827 131.139 157.534 131H141.062C131.769 131.139 129.097 127.463 128.279 125.894C127.9 124.996 127.735 124.022 127.797 123.05C127.86 122.078 128.147 121.133 128.638 120.29C130.141 118.935 131.979 118.002 133.963 117.588C133.963 117.886 133.963 118.184 134.082 118.442C135 123.31 142.478 123.489 143.515 123.489H155.002C155.341 123.489 163.597 123.489 164.554 118.442C164.554 118.184 164.654 117.906 164.674 117.608C166.652 118.011 168.484 118.937 169.978 120.29C170.456 121.139 170.73 122.087 170.778 123.059C170.827 124.031 170.649 125.002 170.257 125.894H170.337ZM169.559 99.7849C170.122 101.062 170.353 102.459 170.231 103.848C170.109 105.237 169.638 106.573 168.861 107.733C168.178 108.088 167.414 108.258 166.644 108.226C165.874 108.195 165.126 107.963 164.474 107.554C163.224 105.969 162.395 104.097 162.061 102.11V101.672C161.347 98.738 160.979 95.7307 160.964 92.7113C162.79 93.2558 164.485 94.1633 165.949 95.3791C167.413 96.5949 168.614 98.0937 169.48 99.7849H169.559ZM175.343 72.2058C174.904 74.0139 167.824 81.6041 160.984 88.1015C161.342 80.6408 163.265 73.3375 166.628 66.6621C168.69 63.114 171.766 60.2574 175.462 58.4559C175.582 63.3637 175.482 68.1524 175.263 72.2058H175.343ZM208.287 51.3624C209.563 51.6207 212.275 52.6143 212.694 54.0648C213.053 55.2172 211.936 56.6677 210.959 57.6811C207.17 61.655 197.419 70.2585 188.425 67.6159C184.671 66.7246 181.415 64.4073 179.351 61.1582C179.351 59.8071 179.351 58.3964 179.351 56.9459C180.241 56.629 181.146 56.357 182.063 56.1312C184.029 59.4907 187.133 62.0413 190.818 63.324C192.745 63.8461 194.76 63.9622 196.734 63.6645C198.708 63.3669 200.599 62.6621 202.284 61.5953C202.401 61.5388 202.503 61.4574 202.584 61.3569C203.12 60.7231 203.49 59.9664 203.661 59.1549C203.831 58.3434 203.797 57.5024 203.561 56.7073C202.723 54.6012 200.111 53.3096 195.584 52.7334C190.062 52.3293 184.514 53.0042 179.251 54.7204C179.251 53.9852 179.251 53.25 179.251 52.495C188.777 50.5489 198.558 50.1663 208.207 51.3624H208.287ZM184.197 55.5351C187.834 54.7757 191.562 54.5481 195.265 54.8595C199.991 55.396 201.247 56.6875 201.467 57.4028C201.57 57.8087 201.579 58.2329 201.493 58.6428C201.407 59.0526 201.227 59.4373 200.968 59.7673C199.553 60.6382 197.975 61.214 196.329 61.4599C194.684 61.7057 193.006 61.6166 191.396 61.1979C188.407 60.1658 185.847 58.174 184.117 55.5351H184.197ZM240.673 13.9876C218.218 42.3813 185.314 44.0305 178.334 44.0504C177.867 39.9807 176.923 35.9795 175.522 32.1286C211.059 31.9497 231.36 12.855 233.514 10.6495C238.24 5.94035 241.211 3.89383 242.368 3.49643C242.168 7.04821 241.573 10.5668 240.593 13.9876H240.673Z" fill="#1E1E1E"/>
<path d="M125.37 213.619H118.988L119.272 213.456C120.077 213.039 120.768 212.395 121.276 211.59C121.655 210.654 121.822 209.63 121.763 208.606V196.122L119.956 194.256H127.023L125.037 196.231L128.909 208.865L129.396 207.551L129.52 206.992L133.047 196.231L131.382 194.256H138.306L136.456 196.354V211.855L138.134 213.619H131.851L133.75 211.855V198.104L128.669 213.606H127.713L123.946 201.435L123.588 200.236L122.842 197.838V208.675C122.773 209.83 122.917 210.989 123.267 212.08C123.463 212.43 123.723 212.732 124.03 212.967C124.336 213.201 124.683 213.363 125.049 213.442L125.37 213.619Z" fill="#1E1E1E"/>
<path d="M182.297 211.703V195.961L180.168 194.256H196.266C195.241 195.265 194.249 197.143 193.289 199.89C193.156 198.562 192.559 197.321 191.598 196.377C190.533 195.596 189.216 195.218 187.89 195.313C187.473 195.313 187.027 195.313 186.568 195.374H186.04L185.49 195.422H185.365V211.573L187.535 213.619H180.168L182.297 211.703Z" fill="#1E1E1E"/>
<path d="M104.342 204.453C104.974 204.104 105.692 203.946 106.411 203.999C106.538 203.999 106.746 203.999 107.035 203.999C106.479 203.047 106.078 202.012 105.846 200.932C105.671 201.118 105.48 201.288 105.276 201.441L104.785 201.861L104.577 202.031L104.235 202.255L103.637 202.581L101.199 196.027L102.75 194.256H95.8862L97.4847 196.013L95.4698 201.638L95.2817 202.079L95.0131 202.757C94.723 202.553 94.4491 202.326 94.1937 202.079L93.5221 201.448L93.2669 201.21C92.9609 202.12 92.5363 202.985 92.0042 203.782C92.8291 203.815 93.6239 204.104 94.281 204.609L94.2206 204.82C93.659 206.855 92.8324 208.805 91.7624 210.621C90.9158 211.893 89.7593 212.923 88.4043 213.613H95.8526L95.584 213.328C95.1228 212.875 94.721 212.364 94.3885 211.808C94.1865 211.371 94.0898 210.892 94.1064 210.41C94.1366 209.715 94.2725 209.028 94.5093 208.375L94.9997 206.841C95.2012 206.217 95.3624 205.749 95.49 205.423L96.1616 206.102L96.4907 206.448L96.6384 206.631C97.4377 207.696 98.1025 208.667 98.6197 209.474L98.8816 209.908C99.6569 208.594 100.65 207.423 101.817 206.448L102.099 207.126L102.22 207.486L103.872 211.876L101.817 213.619H109.332L107.102 211.876L104.342 204.453ZM99.5936 206.258L99.3384 206.543C99.2801 206.605 99.2262 206.67 99.1772 206.74L98.9689 206.991C98.9214 207.051 98.8698 207.107 98.8145 207.16L98.6667 206.964L97.9951 206C97.4022 205.182 96.7513 204.409 96.0474 203.687L98.4115 197.37L98.8279 198.53L99.0831 199.114L101.098 204.65C100.552 205.142 100.049 205.68 99.5936 206.258Z" fill="#1E1E1E"/>
<path d="M155.937 204.444C156.57 204.095 157.289 203.937 158.009 203.989C158.137 203.989 158.352 203.989 158.635 203.989C158.08 203.033 157.679 201.996 157.444 200.914C157.269 201.099 157.08 201.27 156.879 201.424L156.388 201.846L156.179 202.016L155.836 202.241L155.237 202.567L152.775 196.031L154.323 194.256H147.447L149.028 195.97L147.01 201.608L146.815 202.05L146.546 202.73C146.257 202.524 145.983 202.296 145.725 202.05L145.053 201.418L144.797 201.18C144.491 202.092 144.065 202.959 143.532 203.757C144.359 203.791 145.155 204.081 145.813 204.587L145.752 204.798C145.188 206.838 144.358 208.794 143.283 210.613C142.436 211.889 141.278 212.922 139.92 213.613H147.394C147.279 213.483 147.185 213.388 147.125 213.327C146.664 212.873 146.264 212.361 145.934 211.803C145.732 211.365 145.635 210.885 145.651 210.402C145.682 209.705 145.818 209.017 146.055 208.362L146.546 206.825C146.741 206.199 146.909 205.73 147.037 205.403L147.71 206.083L148.039 206.43L148.187 206.614C148.995 207.682 149.654 208.654 150.172 209.464L150.441 209.899C151.215 208.58 152.21 207.406 153.381 206.43L153.663 207.11L153.778 207.471L155.432 211.871L153.381 213.619H160.848L158.608 211.871L155.937 204.444ZM151.181 206.253L150.932 206.539L150.764 206.736L150.555 206.988C150.511 207.049 150.462 207.106 150.407 207.158L150.259 206.961L149.587 205.995C148.993 205.175 148.341 204.4 147.636 203.676L150.004 197.344L150.421 198.507L150.676 199.092L152.695 204.642C152.147 205.136 151.641 205.675 151.181 206.253Z" fill="#1E1E1E"/>
<path d="M198.592 213.327C198.128 212.875 197.725 212.363 197.395 211.804C197.192 211.366 197.096 210.886 197.112 210.403C197.142 209.707 197.279 209.019 197.516 208.364L198.007 206.827C198.208 206.202 198.37 205.733 198.498 205.406L199.17 206.086L199.5 206.433L199.647 206.616C200.448 207.684 201.107 208.656 201.625 209.465L201.894 209.9C202.67 208.583 203.664 207.41 204.832 206.433L205.115 207.113L205.236 207.473L206.89 211.872L204.832 213.619H212.358L210.125 211.872L207.435 204.475C208.065 204.125 208.782 203.966 209.499 204.019C209.634 204.019 209.842 204.019 210.132 204.019C209.576 203.065 209.172 202.028 208.935 200.946C208.76 201.131 208.571 201.302 208.37 201.456L207.879 201.877L207.67 202.047L207.327 202.272L206.729 202.598L204.288 196.03L205.834 194.256H198.948L200.528 195.969L198.511 201.605L198.316 202.047L198.054 202.727C197.763 202.522 197.489 202.295 197.233 202.047L196.561 201.415L196.305 201.177C195.999 202.089 195.574 202.956 195.041 203.754C195.867 203.788 196.663 204.077 197.321 204.583L197.26 204.794C196.699 206.835 195.869 208.79 194.792 210.607C193.947 211.884 192.788 212.917 191.43 213.606H198.881L198.592 213.327ZM201.463 197.37L201.88 198.532L202.136 199.117L204.153 204.665C203.6 205.155 203.092 205.695 202.633 206.276L202.378 206.562C202.319 206.624 202.266 206.69 202.216 206.759L202.008 207.011C201.96 207.071 201.909 207.128 201.853 207.181L201.705 206.984L201.033 206.018C200.439 205.198 199.787 204.424 199.083 203.7L201.463 197.37Z" fill="#1E1E1E"/>
<path d="M178.559 194.29H172.209L173.884 195.982V202.881C173.061 202.991 172.232 203.041 171.403 203.03C170.746 203.03 170.064 202.996 169.357 202.928L168.904 202.881H168.551C168.301 202.866 168.053 202.836 167.806 202.792V196.295L169.667 194.256H163.242L165.103 196.098V202.881C164.496 203.016 163.932 203.323 163.468 203.773C163.004 204.223 162.657 204.799 162.461 205.443L162.666 205.593C162.946 205.177 163.314 204.843 163.739 204.619C164.164 204.395 164.632 204.289 165.103 204.308V211.852L163.242 213.619H169.592L167.831 211.988V204.512C167.986 204.512 168.092 204.512 168.147 204.512L169.537 204.648C169.816 204.648 170.268 204.689 170.882 204.689C171.888 204.7 172.893 204.629 173.89 204.478V211.852L172.029 213.619H178.348L176.687 211.988V196.295L178.559 194.29Z" fill="#1E1E1E"/>
<path d="M224.884 204.449V211.732L222.826 213.48H229.815L227.977 211.867V196.281L230.075 194.256H215.673L217.73 196.078C217.73 196.078 217.381 206.096 216.839 208.229C216.297 210.362 216.228 211.064 215.22 211.57C214.212 212.076 212.367 211.064 212.367 211.064C212.367 211.064 213.094 212.954 213.821 213.291C214.31 213.527 214.851 213.639 215.395 213.617C215.938 213.594 216.468 213.438 216.935 213.163C217.465 212.686 217.813 212.046 217.922 211.347C218.183 210.081 218.344 208.797 218.403 207.506C218.663 204.422 219.232 196.274 219.232 196.274C219.276 196.099 219.352 195.934 219.459 195.788C219.611 195.683 219.784 195.609 219.966 195.572H224.884V204.442V204.449Z" fill="#1E1E1E"/>
<path d="M86.7936 194.29H80.4558L82.1331 195.982V202.881C81.3118 202.991 80.4847 203.041 79.6574 203.03C79.0013 203.03 78.3205 202.996 77.615 202.928L77.1631 202.881H76.8041C76.5553 202.866 76.3074 202.836 76.0615 202.792V196.295L77.9182 194.256H71.469L73.3258 196.098V202.881C72.7211 203.017 72.1596 203.325 71.6978 203.775C71.2361 204.225 70.8903 204.8 70.6953 205.443L70.8995 205.593C71.1786 205.178 71.5454 204.845 71.9681 204.621C72.3908 204.397 72.8568 204.29 73.3258 204.308V211.852L71.469 213.619H77.8068L76.0491 211.988V204.512C76.1542 204.506 76.2596 204.506 76.3647 204.512L77.7511 204.648C78.0358 204.648 78.4814 204.689 79.0941 204.689C80.1002 204.7 81.1056 204.629 82.1022 204.478V211.852L80.2454 213.619H86.5523L84.8874 211.988V196.295L86.7936 194.29Z" fill="#1E1E1E"/>
</g>
<defs>
<clipPath id="clip0_276_2">
<rect width="301" height="213" fill="white" transform="translate(0.5 0.619995)"/>
</clipPath>
</defs>
</svg>
