<?xml version="1.0" encoding="UTF-8"?><svg xmlns:xlink="http://www.w3.org/1999/xlink"  id="_ар_2" xmlns="http://www.w3.org/2000/svg" viewBox="0 0 30 30"><defs><style>.cls-1{fill:none;}</style></defs><g id="_ар_1-2"><g><rect class="cls-1" x="0" width="30" height="30"/><g><path d="M10.29,19.51c-1.12-.13-2.17-.61-3-1.37-.86-.72-1.47-1.7-1.74-2.79-.31-1.3-1.03-2.47-2.05-3.33-.37-.34-.7-.6-1.03-.84-.22-.16-.54-.12-.7,.1-.16,.22-.12,.54,.1,.7,.3,.22,.61,.48,.96,.79,.86,.72,1.47,1.7,1.74,2.79,.32,1.3,1.04,2.47,2.06,3.33,1,.9,2.25,1.46,3.58,1.61h.03c.28,.02,.51-.19,.52-.47,.01-.28-.2-.51-.48-.52Z"/><path d="M23.39,10.18c-.18-.21-.49-.24-.7-.06-.73,.6-1.56,1.07-2.45,1.38-2.16,.74-4.51,.65-6.61-.26-.24-.09-.51,.02-.62,.24-.12,.25-.02,.55,.22,.67,2.33,1,4.95,1.09,7.34,.25,.66-.23,1.29-.54,1.88-.91-.45,4.5-3.87,8-8,8h-4.02c-.28,0-.5,.22-.5,.5s.22,.5,.5,.5h4.02c4.99,0,9.05-4.5,9.05-10,0-.12-.04-.23-.12-.32Z"/><path d="M10.11,19.51c-.27-.07-.54,.09-.61,.36,0,.07-.42,1.62-2,1.62-.28,0-.5,.22-.5,.5s.22,.5,.5,.5c1.41-.03,2.63-1.01,2.97-2.38,.07-.27-.09-.54-.36-.61Z"/><path d="M17,21.5c-1.55,0-2-1.55-2-1.62-.07-.28-.35-.45-.62-.38-.28,.07-.45,.35-.38,.62,.34,1.38,1.57,2.36,3,2.38,.28,0,.5-.22,.5-.5s-.22-.5-.5-.5Z"/><path d="M23,21.5H1.5c-.28,0-.5,.22-.5,.5s.22,.5,.5,.5H23c.28,0,.5-.22,.5-.5s-.22-.5-.5-.5Z"/><path d="M20.5,21.5H4c-.09,0-.17,.02-.25,.06-.25,.13-.34,.43-.21,.67l.46,.89c.45,.86,1.34,1.39,2.3,1.38h11.89c.97,.01,1.86-.52,2.3-1.38l.45-.89c.04-.07,.06-.15,.06-.23,0-.28-.22-.5-.5-.5Zm-.9,1.16c-.27,.52-.81,.84-1.4,.83H6.31c-.59,0-1.13-.32-1.4-.83l-.09-.17h14.86l-.09,.17Z"/><path d="M26.36,5.61c-2.22-.49-4.46,.76-5.21,2.91-.22,.63-.22,1.31,0,1.94,.26,.73,.96,1.2,1.73,1.17,.28-.03,.48-.27,.45-.55s-.27-.48-.55-.45c-.32-.01-.6-.23-.7-.54-.13-.42-.11-.86,.04-1.27,.59-1.64,2.29-2.6,4-2.25,1.6,.42,2.88,2.12,2.88,3.92-.01,1.82-1.08,3.48-2.73,4.24-.7,.27-1.43,.47-2.18,.57-.4,.07-.81,.14-1.2,.24-1.88,.44-2.88,1.49-2.88,2.94,0,.28,.22,.5,.5,.5s.5-.22,.5-.5c0-1.2,1.15-1.74,2.11-1.98,.37-.09,.76-.16,1.14-.23,.83-.12,1.63-.33,2.41-.64,2.01-.93,3.31-2.93,3.33-5.15,0-2.25-1.48-4.24-3.64-4.89Z"/><path d="M13.62,11.26c-.67-.29-1.38-.72-1.99-1.06-2.13-1.2-3.92-1.69-6.13-1.7-1.82,0-3.45,0-5,.94-.33,.19-.53,.55-.5,.93,.02,.38,.26,.72,.6,.86,.45,.2,.87,.45,1.26,.75,.17,.12,.39,.12,.56,0,.72-.44,1.55-.67,2.4-.65,.89-.01,1.76,.24,2.5,.73,.4,.28,.85,.5,1.32,.65,.2,.05,.34,.23,.34,.44v1.33c0,.83,.67,1.5,1.5,1.5,.08,0,.17,0,.26,0,.74-.15,1.27-.81,1.25-1.56v-1.28c0-.23,.15-.44,.37-.5,.44-.12,.87-.29,1.27-.5,.1-.05,.17-.13,.22-.23,.11-.25,0-.55-.25-.66Zm-1.52,.45c-.65,.18-1.1,.77-1.1,1.44v1.28c0,.26-.16,.48-.41,.55-.15,.03-.3-.01-.41-.11-.11-.09-.18-.23-.18-.38v-1.33c0-.65-.42-1.22-1.04-1.4-.37-.11-.72-.28-1.04-.5-.92-.61-2-.93-3.1-.91-.91,0-1.81,.21-2.62,.62-.37-.27-.77-.49-1.18-.68,1.4-.86,2.86-.8,4.5-.79,2,.02,3.5,.5,5.49,1.47,.46,.23,.85,.47,1.25,.7l-.13,.04Z"/><path d="M10.85,17.14l-.07-.06s-.06-.03-.09-.05c-.03-.01-.06-.03-.09-.03-.06-.01-.13-.01-.19,0-.03,0-.07,.01-.09,.03-.03,.01-.06,.03-.09,.05l-.07,.06c-.09,.09-.15,.22-.15,.36,0,.13,.05,.26,.15,.35,.09,.1,.22,.15,.35,.15,.07,0,.13-.01,.19-.04,.06-.03,.12-.06,.16-.11,.09-.09,.14-.22,.15-.35,0-.13-.05-.26-.15-.36Z"/></g></g></g></svg>