<svg width="301" height="213" viewBox="0 0 301 213" fill="none" xmlns="http://www.w3.org/2000/svg">
<g clip-path="url(#clip0_236_332)">
<path d="M19.6136 155.642C18.9447 154.544 17.9685 153.665 16.8054 153.113C15.6175 152.506 14.304 152.185 12.9696 152.174C11.5192 152.124 10.09 152.533 8.88762 153.344C8.28971 153.722 7.79727 154.245 7.45603 154.864C7.11479 155.483 6.93583 156.178 6.93583 156.884C6.93583 157.591 7.11479 158.286 7.45603 158.904C7.79727 159.523 8.28971 160.046 8.88762 160.424C10.1867 161.204 11.6121 161.751 13.0998 162.042L17.3121 162.895C19.7139 163.267 21.9754 164.263 23.8692 165.784C24.6149 166.474 25.2066 167.313 25.6056 168.247C26.0047 169.18 26.2022 170.187 26.1853 171.202C26.1972 172.342 25.9569 173.47 25.4815 174.507C25.0061 175.543 24.3073 176.462 23.435 177.198C21.0883 179.19 18.0736 180.222 14.9961 180.088C12.9368 180.057 10.8914 179.746 8.9166 179.163C7.2194 178.61 5.46742 178.242 3.69111 178.065C2.37106 178.213 1.10557 178.673 0 179.408C1.9583 176.759 3.51871 173.839 4.63197 170.74C4.8749 172.008 5.3248 173.229 5.96369 174.352C6.92754 175.765 8.33986 176.813 9.97325 177.328C11.5839 177.906 13.2845 178.195 14.9961 178.18C16.6482 178.24 18.2866 177.861 19.7439 177.082C20.472 176.706 21.0786 176.132 21.4936 175.427C21.9085 174.721 22.1149 173.913 22.0889 173.095C22.0832 172.12 21.7747 171.171 21.2059 170.379C19.9902 168.796 18.2514 167.695 16.2989 167.272L10.0601 166.059C8.129 165.798 6.30662 165.013 4.79122 163.79C4.05685 163.108 3.47779 162.277 3.09321 161.352C2.70863 160.427 2.5275 159.431 2.56206 158.43C2.5257 157.218 2.79573 156.016 3.34721 154.935C3.89869 153.855 4.71385 152.93 5.7176 152.246C7.74149 150.86 10.1543 150.152 12.6077 150.224C14.8919 150.295 17.156 150.674 19.3386 151.351C20.1775 151.632 21.0475 151.812 21.9296 151.885C22.9468 151.826 23.9483 151.606 24.897 151.235C23.252 153.551 21.8502 156.03 20.7137 158.632C20.5477 157.559 20.1741 156.529 19.6136 155.598V155.642Z" fill="white"/>
<path d="M52.2312 157.867C51.8492 156.463 51.1287 155.173 50.1323 154.111C48.9727 153.194 47.5109 152.746 46.0359 152.854C45.5003 152.854 44.5884 152.854 43.358 153.013V176.852L46.8031 179.438H34.977L38.4221 176.852V153.013C37.1772 152.911 36.2798 152.854 35.7442 152.854C34.2692 152.746 32.8074 153.194 31.6477 154.111C30.6514 155.175 29.9265 156.464 29.5344 157.867C28.6341 155.435 27.407 153.136 25.8867 151.033H55.9223C54.4004 153.142 53.1596 155.439 52.2312 157.867Z" fill="white"/>
<path d="M74.6523 153.706C72.9786 153.044 71.1808 152.753 69.3834 152.853C68.1965 152.853 66.7634 152.853 65.0409 153.012V163.256H71.3665L74.4786 159.817V168.486L71.3665 165.12H65.0409V177.429C66.5608 177.53 67.632 177.588 68.2833 177.588C70.3853 177.734 72.4947 177.444 74.4786 176.736C76.2114 175.568 77.6204 173.983 78.575 172.127C78.9112 173.575 79.4886 174.958 80.2831 176.215C81.1581 177.403 82.1793 178.476 83.3228 179.408H56.7034L60.105 176.866V165.12C58.279 165.035 56.4795 165.581 55.0098 166.665C55.6467 164.368 57.3547 163.227 60.105 163.227V153.561L56.7034 151.004H82.2806C80.4515 152.99 78.9822 155.278 77.9381 157.766C77.4219 156.038 76.2613 154.575 74.6958 153.677L74.6523 153.706Z" fill="white"/>
<path d="M115.243 179.437L111.914 176.851L107.803 165.683C108.682 165.256 109.648 165.038 110.626 165.047C111.219 165.047 111.639 165.047 111.914 165.047C111.083 163.762 110.49 162.338 110.163 160.843C109.2 161.893 108.094 162.803 106.877 163.545L103.157 153.561L105.516 151.004H95.2969L97.6419 153.561L93.7916 163.834C92.6915 162.75 91.8519 161.941 91.2874 161.406C90.8414 162.654 90.2278 163.835 89.4635 164.917C90.6708 165.048 91.8257 165.481 92.8217 166.174C92.1176 168.813 91.1477 171.374 89.9267 173.817C88.5908 176.21 86.5765 178.155 84.1367 179.408H95.2391C94.5311 178.903 93.9355 178.258 93.4896 177.512C93.0437 176.766 92.7572 175.936 92.648 175.074C92.9541 172.37 93.6615 169.726 94.7469 167.229C96.681 169.252 98.3538 171.509 99.7263 173.947C100.326 172.99 101.019 172.095 101.796 171.274L104.112 168.804L107.138 176.837L104.156 179.408L115.243 179.437ZM99.6394 170.581C98.3372 168.687 96.9158 166.877 95.3838 165.163L99.0894 155.526L103.244 166.564C101.918 167.787 100.712 169.132 99.6394 170.581Z" fill="white"/>
<path d="M136.236 156.422L130.721 161.508C133.8 166.95 135.73 170.229 136.511 171.347C138.658 174.479 141.332 177.216 144.415 179.437C142.688 179.485 140.975 179.757 139.319 180.246C137.654 180.648 136.066 181.316 134.615 182.226C134.677 178.926 134.087 175.647 132.878 172.575C131.487 169.62 129.906 166.758 128.145 164.007L123.18 168.573V176.895L126.712 179.481H114.871L118.287 176.895V153.633L114.871 151.076H126.755L123.223 153.633V165.596L132.791 156.826C133.254 156.482 133.643 156.049 133.937 155.553C134.23 155.057 134.421 154.508 134.499 153.937C134.499 152.781 133.428 151.856 131.3 151.192V151.105H144.125V151.192C143.549 151.404 142.983 151.645 142.431 151.914C140.21 153.184 138.153 154.722 136.309 156.494L136.236 156.422Z" fill="white"/>
<path d="M181.751 176.486L185.225 179.087H173.356L176.844 176.486V165.405C175.308 165.805 173.727 166.009 172.14 166.012C170.056 166.045 167.978 165.772 165.973 165.203V176.486L169.418 179.087H157.592L161.037 176.486V165.044C160.186 165.008 159.337 165.16 158.551 165.49C157.766 165.82 157.062 166.319 156.492 166.951C156.804 165.867 157.375 164.875 158.157 164.061C158.515 163.636 158.957 163.289 159.455 163.04C159.953 162.792 160.496 162.647 161.052 162.616V153.139L157.607 150.596H169.433L165.988 153.139V162.891C168.168 163.653 170.453 164.077 172.762 164.148C174.145 164.087 175.518 163.884 176.858 163.541V153.139L173.37 150.596H185.24L181.766 153.139V176.4L181.751 176.486Z" fill="white"/>
<path d="M211.208 154.325C209.999 152.857 208.457 151.699 206.71 150.945C204.963 150.191 203.061 149.864 201.162 149.99C196.675 149.99 193.254 151.392 190.899 154.195C188.534 157.252 187.356 161.059 187.585 164.915C187.362 168.759 188.51 172.557 190.827 175.635C193.516 178.314 197.16 179.818 200.959 179.818C204.759 179.818 208.403 178.314 211.092 175.635C213.416 172.636 214.582 168.903 214.378 165.117C214.596 161.263 213.476 157.452 211.208 154.325ZM205.78 176.213C204.505 177.299 202.881 177.888 201.206 177.875C199.881 177.864 198.58 177.516 197.428 176.864C196.312 176.275 195.377 175.397 194.721 174.321C193.534 172.269 192.926 169.105 192.926 164.828C192.926 159.049 194.007 155.264 196.168 153.472C197.431 152.386 199.046 151.795 200.713 151.811C202.028 151.814 203.32 152.158 204.462 152.808C205.596 153.408 206.543 154.307 207.198 155.408C208.414 157.518 209.022 160.725 209.022 165.06C209.022 170.723 207.941 174.441 205.78 176.213Z" fill="white"/>
<path d="M236.549 153.632C236.078 152.883 235.456 152.24 234.724 151.742C233.992 151.245 233.164 150.904 232.293 150.742H244.365C243.494 150.904 242.667 151.245 241.934 151.742C241.202 152.24 240.58 152.883 240.109 153.632C239.494 155.314 239.233 157.104 239.342 158.891V171.071C239.411 172.717 239.12 174.359 238.488 175.882C238.131 176.614 237.627 177.265 237.007 177.794C236.387 178.324 235.664 178.72 234.884 178.959C233.222 179.529 231.473 179.802 229.716 179.768C224.756 179.768 221.519 178.516 220.004 176.012C219.087 174.49 218.629 171.846 218.629 168.08V153.227L215.184 150.685H226.995L223.55 153.227V170.883C223.5 172.134 223.637 173.385 223.955 174.596C224.65 176.782 226.701 177.876 230.107 177.876C233.35 177.876 235.429 176.956 236.346 175.116C237.135 172.879 237.455 170.503 237.287 168.138V158.891C237.4 157.104 237.138 155.313 236.52 153.632H236.549Z" fill="white"/>
<path d="M262.372 155.293C261.678 154.183 260.671 153.303 259.477 152.765C258.297 152.147 256.987 151.82 255.655 151.811C254.199 151.768 252.766 152.182 251.559 152.996C250.964 153.376 250.475 153.9 250.136 154.518C249.797 155.137 249.619 155.831 249.619 156.536C249.619 157.241 249.797 157.934 250.136 158.553C250.475 159.171 250.964 159.695 251.559 160.075C252.861 160.848 254.286 161.395 255.771 161.694C257.218 161.983 258.579 162.271 259.983 162.532C262.394 162.932 264.66 163.952 266.555 165.493C267.3 166.183 267.892 167.022 268.291 167.956C268.69 168.89 268.888 169.897 268.871 170.911C268.88 172.05 268.637 173.177 268.159 174.211C267.681 175.245 266.98 176.161 266.106 176.893C263.77 178.893 260.756 179.926 257.682 179.782C255.622 179.752 253.577 179.441 251.602 178.858C249.907 178.299 248.154 177.931 246.377 177.76C245.056 177.903 243.789 178.364 242.686 179.103C244.641 176.455 246.197 173.534 247.303 170.435C247.544 171.708 247.994 172.934 248.635 174.061C249.604 175.475 251.021 176.523 252.659 177.037C254.269 177.616 255.97 177.904 257.682 177.89C259.328 177.943 260.961 177.564 262.415 176.792C263.148 176.417 263.759 175.841 264.177 175.133C264.595 174.424 264.802 173.611 264.774 172.79C264.761 171.818 264.447 170.875 263.877 170.088C262.668 168.498 260.926 167.395 258.97 166.981L252.731 165.768C250.801 165.504 248.979 164.72 247.462 163.5C246.732 162.811 246.156 161.977 245.772 161.05C245.387 160.124 245.204 159.127 245.233 158.125C245.201 156.914 245.474 155.714 246.028 154.636C246.582 153.558 247.399 152.636 248.403 151.956C250.423 150.561 252.839 149.852 255.293 149.933C257.573 150.005 259.832 150.384 262.01 151.06C262.853 151.342 263.728 151.522 264.615 151.594C265.608 151.529 266.585 151.309 267.51 150.944C265.866 153.258 264.468 155.737 263.341 158.342C263.168 157.27 262.795 156.241 262.241 155.308L262.372 155.293Z" fill="white"/>
<path d="M291.468 153.357C289.794 152.696 287.996 152.405 286.199 152.505C285.012 152.505 283.579 152.505 281.856 152.664V162.907H288.182L291.294 159.468V168.137L288.182 164.771H281.856V177.066C283.376 177.182 284.447 177.239 285.099 177.239C287.2 177.385 289.31 177.095 291.294 176.387C293.023 175.216 294.432 173.632 295.39 171.778C295.726 173.222 296.304 174.6 297.098 175.852C297.968 177.048 298.99 178.126 300.138 179.06H273.504L276.906 176.517V164.771C275.08 164.686 273.28 165.232 271.811 166.317C272.447 164.02 274.155 162.878 276.906 162.878V153.198L273.504 150.655H299.081C297.227 152.635 295.732 154.924 294.667 157.417C294.154 155.688 292.993 154.223 291.424 153.328L291.468 153.357Z" fill="white"/>
<path d="M244.461 2.47902C244.494 1.99343 244.373 1.50976 244.115 1.09624C243.858 0.682723 243.476 0.360271 243.025 0.174187C242.227 -0.143727 240.073 -0.978252 231.06 8.12205C228.906 10.268 208.984 29.1044 173.686 28.8461C172.89 27.3032 171.674 26.0154 170.176 25.1305C169.904 24.9916 169.604 24.9168 169.299 24.9118H128.377C128.065 24.9137 127.758 24.9886 127.48 25.1305C125.983 26.0154 124.766 27.3032 123.97 28.8461H123.272C88.4732 28.8461 68.8102 10.268 66.6564 8.12205C57.6226 -0.878904 55.4888 -0.0443788 54.6911 0.174187C54.2398 0.360271 53.8585 0.682723 53.6009 1.09624C53.3433 1.50976 53.2224 1.99343 53.2553 2.47902C53.3894 6.51145 54.0053 10.5136 55.09 14.4008C55.1496 14.5691 55.23 14.7292 55.3293 14.8777C78.1232 43.8675 111.446 46.0929 119.623 46.1724C119.503 47.1659 119.423 48.1594 119.344 49.1727C109.495 47.2096 99.3914 46.8606 89.4303 48.1395H89.3107C88.7722 48.2388 83.8665 49.3119 82.8295 52.6897C82.2113 54.6767 83.0289 56.6636 85.2026 58.9685C88.7523 62.6046 97.1679 70.1551 106.122 70.1551C107.588 70.1582 109.047 69.9439 110.449 69.5192C113.612 68.6403 116.499 66.9794 118.845 64.6909C118.845 68.2873 119.024 70.9698 119.084 71.9235C119.264 75.202 128.736 84.6202 135.038 90.5215C133.11 91.1863 131.336 92.2332 129.825 93.5991C128.313 94.965 127.095 96.6217 126.244 98.4694C125.532 100.085 125.246 101.854 125.414 103.61C125.581 105.367 126.196 107.051 127.201 108.504C127.969 109.267 128.99 109.726 130.072 109.795C130.384 109.821 130.698 109.821 131.01 109.795C132.323 109.841 133.612 109.434 134.659 108.643C133.755 110.389 133.27 112.321 133.243 114.286C130.512 114.81 127.987 116.099 125.964 118.001C123.671 120.664 124.509 124.936 125.227 126.466C126.184 128.453 129.514 133.122 139.944 133.122H156.895C167.743 133.261 171.173 128.512 172.15 126.466C172.868 124.936 173.706 120.664 171.413 118.001C169.399 116.101 166.879 114.818 164.154 114.306C164.116 112.443 163.688 110.609 162.897 108.921C164.169 109.653 165.65 109.939 167.105 109.735C168.181 109.662 169.194 109.203 169.957 108.444C170.961 106.991 171.576 105.307 171.744 103.551C171.911 101.795 171.626 100.025 170.914 98.4098C169.257 94.8476 166.254 92.0833 162.558 90.7203C168.9 84.7594 178.293 75.1822 178.512 71.9434C178.512 70.9897 178.711 68.3668 178.751 64.8102C181.089 67.0465 183.946 68.6712 187.067 69.5391C188.463 69.9624 189.915 70.1767 191.375 70.175C200.309 70.175 208.744 62.6245 212.294 58.9883C214.488 56.763 215.285 54.6369 214.687 52.7096C213.63 49.3317 208.704 48.2587 208.186 48.1594H208.006C198.099 46.8895 188.05 47.2318 178.253 49.1727C178.253 48.1792 178.073 47.1858 177.974 46.1923C185.95 46.1923 219.473 43.9669 242.307 14.8976C242.422 14.7586 242.504 14.5956 242.546 14.4207C243.67 10.5327 244.313 6.5224 244.461 2.47902ZM128.896 28.5679H168.78C172.769 31.3099 174.484 43.4304 174.922 55.5112C170.457 57.4702 166.729 60.7882 164.273 64.989C160.503 72.5073 158.459 80.7674 158.291 89.1704C156.727 88.7716 155.143 88.4598 153.544 88.2366C153.544 88.2366 150.912 88.0179 148.838 88.0179C146.764 88.0179 144.052 88.2365 143.872 88.2563C142.293 88.4655 140.728 88.7708 139.186 89.1704C139.008 80.7687 136.964 72.5107 133.203 64.989C130.818 60.9256 127.241 57.6873 122.953 55.7098C123.172 43.5496 124.868 31.3298 128.896 28.5679ZM57.6027 13.3676C56.6424 9.91154 56.0739 6.35929 55.9077 2.77711C57.0842 3.1745 60.0357 5.22103 64.762 9.93014C66.9755 12.1357 87.1769 31.2106 122.694 31.4291C121.298 35.2805 120.361 39.2818 119.902 43.3509C112.803 43.4105 79.9977 41.6818 57.6027 13.3676ZM109.712 67.0157C100.718 69.7378 90.9459 61.0548 87.1769 57.0808C86.1798 56.0675 85.1827 54.6171 85.4419 53.4646C85.9205 51.9148 88.7922 50.9808 89.8292 50.7623C99.5944 49.5125 109.5 49.8819 119.144 51.8552L119.025 54.1998C113.654 52.381 107.969 51.6646 102.313 52.0936C97.8061 52.6102 95.1937 53.9018 94.3361 56.0676C94.0999 56.8626 94.0655 57.7036 94.2361 58.5151C94.4067 59.3267 94.7768 60.0832 95.3133 60.717C95.3942 60.8175 95.4964 60.8989 95.6125 60.9554C97.2981 62.0222 99.1885 62.727 101.163 63.0246C103.137 63.3223 105.152 63.2063 107.079 62.6841C110.764 61.3932 113.872 58.8454 115.854 55.4913C116.899 55.7574 117.931 56.0758 118.945 56.4451C118.945 57.7697 118.945 59.0944 118.945 60.419C117.914 62.0571 116.567 63.4748 114.982 64.5902C113.397 65.7055 111.606 66.4962 109.712 66.9163V67.0157ZM113.7 55.0939C111.999 57.7186 109.475 59.7095 106.521 60.7568C104.911 61.1767 103.233 61.2664 101.587 61.0204C99.9419 60.7745 98.3637 60.198 96.9486 59.3261C96.6822 59 96.4965 58.6162 96.4064 58.2055C96.3164 57.7948 96.3245 57.3686 96.43 56.9616C96.7092 56.2463 97.9057 54.9747 102.632 54.4184C106.3 54.0553 110.001 54.2226 113.62 54.9151L113.7 55.0939ZM122.973 71.8441C122.754 67.8702 122.654 63.0815 122.754 58.2333C126.272 60.022 129.2 62.7809 131.189 66.1812C134.509 72.677 136.444 79.7871 136.873 87.0642C130.232 80.5668 123.312 73.374 122.893 71.6652L122.973 71.8441ZM128.956 107.292C128.179 106.132 127.708 104.796 127.586 103.407C127.464 102.018 127.695 100.62 128.258 99.3436C129.132 97.6276 130.355 96.1111 131.848 94.8901C133.341 93.6691 135.073 92.7702 136.933 92.2502C136.928 95.2702 136.56 98.2788 135.836 101.211L135.736 101.649C135.402 103.636 134.573 105.508 133.323 107.093C132.661 107.467 131.913 107.665 131.152 107.668C130.391 107.672 129.641 107.48 128.976 107.113L128.956 107.292ZM137.83 102.145V101.748C138.638 98.4111 139.026 94.9871 138.987 91.5548C140.591 91.1128 142.223 90.7808 143.872 90.5613C143.872 90.5613 146.585 90.3427 148.599 90.3427C150.613 90.3427 153.046 90.5613 153.066 90.5613C154.737 90.7777 156.39 91.1164 158.011 91.5747C157.983 94.9999 158.371 98.4159 159.168 101.748V102.145C159.512 103.734 160.048 105.275 160.763 106.735C159.927 106.224 158.975 105.932 157.995 105.887C157.015 105.841 156.04 106.045 155.16 106.477H155.06C154.491 106.74 154.004 107.153 153.652 107.671C153.301 108.189 153.098 108.793 153.066 109.418C153.066 111.782 155.279 114.246 157.593 115.657C158.828 116.464 160.248 116.949 161.721 117.067C161.721 117.246 161.721 117.405 161.721 117.564C161.102 120.862 154.382 120.863 154.282 120.863H142.895C142.895 120.863 136.115 120.862 135.497 117.564C135.497 117.405 135.497 117.246 135.397 117.067C136.877 116.953 138.304 116.467 139.545 115.657C141.838 114.246 144.132 111.683 144.052 109.418C144.022 108.792 143.82 108.188 143.468 107.669C143.116 107.15 142.628 106.738 142.058 106.477H141.938C140.991 105.992 139.925 105.786 138.865 105.885C137.805 105.983 136.796 106.382 135.955 107.033C136.824 105.442 137.462 103.736 137.85 101.966L137.83 102.145ZM162.139 114.782C161.02 114.687 159.943 114.311 159.009 113.69C157.014 112.478 155.479 110.57 155.519 109.358C155.533 109.119 155.615 108.889 155.757 108.695C155.898 108.501 156.092 108.352 156.316 108.265C156.905 107.952 157.569 107.808 158.235 107.851C158.901 107.893 159.541 108.119 160.085 108.504C160.825 109.364 161.387 110.362 161.74 111.439C162.092 112.517 162.228 113.653 162.139 114.782ZM135.497 114.782C135.396 113.656 135.52 112.522 135.862 111.444C136.205 110.366 136.758 109.367 137.491 108.504C138.007 108.081 138.658 107.856 139.326 107.868C140.009 107.882 140.684 108.016 141.32 108.265C141.998 108.643 142.098 109.06 142.098 109.358C142.098 110.57 140.602 112.478 138.608 113.69C137.658 114.324 136.558 114.701 135.417 114.782H135.497ZM169.837 125.274C169.079 126.843 166.327 130.519 157.034 130.38H140.562C131.269 130.519 128.597 126.843 127.779 125.274C127.4 124.376 127.235 123.402 127.297 122.43C127.36 121.458 127.647 120.513 128.138 119.67C129.641 118.315 131.479 117.382 133.463 116.968C133.463 117.266 133.463 117.564 133.582 117.822C134.5 122.69 141.978 122.869 143.015 122.869H154.502C154.841 122.869 163.097 122.869 164.054 117.822C164.054 117.564 164.154 117.286 164.174 116.988C166.152 117.391 167.984 118.317 169.478 119.67C169.956 120.519 170.23 121.467 170.278 122.439C170.327 123.411 170.149 124.382 169.757 125.274H169.837ZM169.059 99.1649C169.622 100.442 169.853 101.839 169.731 103.228C169.609 104.617 169.138 105.953 168.361 107.113C167.678 107.468 166.914 107.638 166.144 107.606C165.374 107.575 164.626 107.343 163.974 106.934C162.724 105.349 161.895 103.477 161.561 101.49V101.052C160.847 98.118 160.479 95.1107 160.464 92.0913C162.29 92.6358 163.985 93.5433 165.449 94.7591C166.913 95.9749 168.114 97.4737 168.98 99.1649H169.059ZM174.843 71.5858C174.404 73.3939 167.324 80.9841 160.484 87.4815C160.842 80.0208 162.765 72.7175 166.128 66.0421C168.19 62.494 171.266 59.6374 174.962 57.8359C175.082 62.7437 174.982 67.5324 174.763 71.5858H174.843ZM207.787 50.7424C209.063 51.0007 211.775 51.9943 212.194 53.4448C212.553 54.5972 211.436 56.0477 210.459 57.0611C206.67 61.035 196.919 69.6385 187.925 66.9959C184.171 66.1046 180.915 63.7873 178.851 60.5382C178.851 59.1871 178.851 57.7764 178.851 56.3259C179.741 56.009 180.646 55.737 181.563 55.5112C183.529 58.8707 186.633 61.4213 190.318 62.704C192.245 63.2261 194.26 63.3422 196.234 63.0445C198.208 62.7469 200.099 62.0421 201.784 60.9753C201.901 60.9188 202.003 60.8374 202.084 60.7369C202.62 60.1031 202.99 59.3464 203.161 58.5349C203.331 57.7234 203.297 56.8824 203.061 56.0873C202.223 53.9812 199.611 52.6896 195.084 52.1134C189.562 51.7093 184.014 52.3842 178.751 54.1004C178.751 53.3652 178.751 52.63 178.751 51.875C188.277 49.9289 198.058 49.5463 207.707 50.7424H207.787ZM183.697 54.9151C187.334 54.1557 191.062 53.9281 194.765 54.2395C199.491 54.776 200.747 56.0675 200.967 56.7828C201.07 57.1887 201.079 57.6129 200.993 58.0228C200.907 58.4326 200.727 58.8173 200.468 59.1473C199.053 60.0182 197.475 60.594 195.829 60.8399C194.184 61.0857 192.506 60.9966 190.896 60.5779C187.907 59.5458 185.347 57.554 183.617 54.9151H183.697ZM240.173 13.3676C217.718 41.7613 184.814 43.4105 177.834 43.4304C177.367 39.3607 176.423 35.3595 175.022 31.5086C210.559 31.3297 230.86 12.235 233.014 10.0295C237.74 5.32035 240.711 3.27383 241.868 2.87643C241.668 6.42821 241.073 9.94682 240.093 13.3676H240.173Z" fill="white"/>
<path d="M124.87 212.999H118.488L118.772 212.836C119.577 212.419 120.268 211.775 120.776 210.97C121.155 210.034 121.322 209.01 121.263 207.986V195.502L119.456 193.636H126.523L124.537 195.611L128.409 208.245L128.896 206.931L129.02 206.372L132.547 195.611L130.882 193.636H137.806L135.956 195.734V211.235L137.634 212.999H131.351L133.25 211.235V197.484L128.169 212.986H127.213L123.446 200.815L123.088 199.616L122.342 197.218V208.055C122.273 209.21 122.417 210.369 122.767 211.46C122.963 211.81 123.223 212.112 123.53 212.347C123.836 212.581 124.183 212.743 124.549 212.822L124.87 212.999Z" fill="white"/>
<path d="M181.797 211.083V195.341L179.668 193.636H195.766C194.741 194.645 193.749 196.523 192.789 199.27C192.656 197.942 192.059 196.701 191.098 195.757C190.033 194.976 188.716 194.598 187.39 194.693C186.973 194.693 186.527 194.693 186.068 194.754H185.54L184.99 194.802H184.865V210.953L187.035 212.999H179.668L181.797 211.083Z" fill="white"/>
<path d="M103.842 203.833C104.474 203.484 105.192 203.326 105.911 203.379C106.038 203.379 106.246 203.379 106.535 203.379C105.979 202.427 105.578 201.392 105.346 200.312C105.171 200.498 104.98 200.668 104.776 200.821L104.285 201.241L104.077 201.411L103.735 201.635L103.137 201.961L100.699 195.407L102.25 193.636H95.3862L96.9847 195.393L94.9698 201.018L94.7817 201.459L94.5131 202.137C94.223 201.933 93.9491 201.706 93.6937 201.459L93.0221 200.828L92.7669 200.59C92.4609 201.5 92.0363 202.365 91.5042 203.162C92.3291 203.195 93.1239 203.484 93.781 203.989L93.7206 204.2C93.159 206.235 92.3324 208.185 91.2624 210.001C90.4158 211.273 89.2593 212.303 87.9043 212.993H95.3526L95.084 212.708C94.6228 212.255 94.221 211.744 93.8885 211.188C93.6865 210.751 93.5898 210.272 93.6064 209.79C93.6366 209.095 93.7725 208.408 94.0093 207.755L94.4997 206.221C94.7012 205.597 94.8624 205.129 94.99 204.803L95.6616 205.482L95.9907 205.828L96.1384 206.011C96.9377 207.076 97.6025 208.047 98.1197 208.854L98.3816 209.288C99.1569 207.974 100.15 206.803 101.317 205.828L101.599 206.506L101.72 206.866L103.372 211.256L101.317 212.999H108.832L106.602 211.256L103.842 203.833ZM99.0936 205.638L98.8384 205.923C98.7801 205.985 98.7262 206.05 98.6772 206.12L98.4689 206.371C98.4214 206.431 98.3698 206.487 98.3145 206.54L98.1667 206.344L97.4951 205.38C96.9022 204.562 96.2513 203.789 95.5474 203.067L97.9115 196.75L98.3279 197.91L98.5831 198.494L100.598 204.03C100.052 204.522 99.5487 205.06 99.0936 205.638Z" fill="white"/>
<path d="M155.437 203.824C156.07 203.475 156.789 203.317 157.509 203.369C157.637 203.369 157.852 203.369 158.135 203.369C157.58 202.413 157.179 201.376 156.944 200.294C156.769 200.479 156.58 200.65 156.379 200.804L155.888 201.226L155.679 201.396L155.336 201.621L154.737 201.947L152.275 195.411L153.823 193.636H146.947L148.528 195.35L146.51 200.988L146.315 201.43L146.046 202.11C145.757 201.904 145.483 201.676 145.225 201.43L144.553 200.798L144.297 200.56C143.991 201.472 143.565 202.339 143.032 203.137C143.859 203.171 144.655 203.461 145.313 203.967L145.252 204.178C144.688 206.218 143.858 208.174 142.783 209.993C141.936 211.269 140.778 212.302 139.42 212.993H146.894C146.779 212.863 146.685 212.768 146.625 212.707C146.164 212.253 145.764 211.741 145.434 211.183C145.232 210.745 145.135 210.265 145.151 209.782C145.182 209.085 145.318 208.397 145.555 207.742L146.046 206.205C146.241 205.579 146.409 205.11 146.537 204.783L147.21 205.463L147.539 205.81L147.687 205.994C148.495 207.062 149.154 208.034 149.672 208.844L149.941 209.279C150.715 207.96 151.71 206.786 152.881 205.81L153.163 206.49L153.278 206.851L154.932 211.251L152.881 212.999H160.348L158.108 211.251L155.437 203.824ZM150.681 205.633L150.432 205.919L150.264 206.116L150.055 206.368C150.011 206.429 149.962 206.486 149.907 206.538L149.759 206.341L149.087 205.375C148.493 204.555 147.841 203.78 147.136 203.056L149.504 196.724L149.921 197.887L150.176 198.472L152.195 204.022C151.647 204.516 151.141 205.055 150.681 205.633Z" fill="white"/>
<path d="M198.092 212.707C197.628 212.255 197.225 211.743 196.895 211.184C196.692 210.746 196.596 210.266 196.612 209.783C196.642 209.087 196.779 208.399 197.016 207.744L197.507 206.207C197.708 205.582 197.87 205.113 197.998 204.786L198.67 205.466L199 205.813L199.147 205.996C199.948 207.064 200.607 208.036 201.125 208.845L201.394 209.28C202.17 207.963 203.164 206.79 204.332 205.813L204.615 206.493L204.736 206.853L206.39 211.252L204.332 212.999H211.858L209.625 211.252L206.935 203.855C207.565 203.505 208.282 203.346 208.999 203.399C209.134 203.399 209.342 203.399 209.632 203.399C209.076 202.445 208.672 201.408 208.435 200.326C208.26 200.511 208.071 200.682 207.87 200.836L207.379 201.257L207.17 201.427L206.827 201.652L206.229 201.978L203.788 195.41L205.334 193.636H198.448L200.028 195.349L198.011 200.985L197.816 201.427L197.554 202.107C197.263 201.902 196.989 201.675 196.733 201.427L196.061 200.795L195.805 200.557C195.499 201.469 195.074 202.336 194.541 203.134C195.367 203.168 196.163 203.457 196.821 203.963L196.76 204.174C196.199 206.215 195.369 208.17 194.292 209.987C193.447 211.264 192.288 212.297 190.93 212.986H198.381L198.092 212.707ZM200.963 196.75L201.38 197.912L201.636 198.497L203.653 204.045C203.1 204.535 202.592 205.075 202.133 205.656L201.878 205.942C201.819 206.004 201.766 206.07 201.716 206.139L201.508 206.391C201.46 206.451 201.409 206.508 201.353 206.561L201.205 206.364L200.533 205.398C199.939 204.578 199.287 203.804 198.583 203.08L200.963 196.75Z" fill="white"/>
<path d="M178.059 193.67H171.709L173.384 195.362V202.261C172.561 202.371 171.732 202.421 170.903 202.41C170.246 202.41 169.564 202.376 168.857 202.308L168.404 202.261H168.051C167.801 202.246 167.553 202.216 167.306 202.172V195.675L169.167 193.636H162.742L164.603 195.478V202.261C163.996 202.396 163.432 202.703 162.968 203.153C162.504 203.603 162.157 204.179 161.961 204.823L162.166 204.973C162.446 204.557 162.814 204.223 163.239 203.999C163.664 203.775 164.132 203.669 164.603 203.688V211.232L162.742 212.999H169.092L167.331 211.368V203.892C167.486 203.892 167.592 203.892 167.647 203.892L169.037 204.028C169.316 204.028 169.768 204.069 170.382 204.069C171.388 204.08 172.393 204.009 173.39 203.858V211.232L171.529 212.999H177.848L176.187 211.368V195.675L178.059 193.67Z" fill="white"/>
<path d="M224.384 203.829V211.112L222.326 212.86H229.315L227.477 211.247V195.661L229.575 193.636H215.173L217.23 195.458C217.23 195.458 216.881 205.476 216.339 207.609C215.797 209.742 215.728 210.444 214.72 210.95C213.712 211.456 211.867 210.444 211.867 210.444C211.867 210.444 212.594 212.334 213.321 212.671C213.81 212.907 214.351 213.019 214.895 212.997C215.438 212.974 215.968 212.818 216.435 212.543C216.965 212.066 217.313 211.426 217.422 210.727C217.683 209.461 217.844 208.177 217.903 206.886C218.163 203.802 218.732 195.654 218.732 195.654C218.776 195.479 218.852 195.314 218.959 195.168C219.111 195.063 219.284 194.989 219.466 194.952H224.384V203.822V203.829Z" fill="white"/>
<path d="M86.2936 193.67H79.9558L81.6331 195.362V202.261C80.8118 202.371 79.9847 202.421 79.1574 202.41C78.5013 202.41 77.8205 202.376 77.115 202.308L76.6631 202.261H76.3041C76.0553 202.246 75.8074 202.216 75.5615 202.172V195.675L77.4182 193.636H70.969L72.8258 195.478V202.261C72.2211 202.397 71.6596 202.705 71.1978 203.155C70.7361 203.605 70.3903 204.18 70.1953 204.823L70.3995 204.973C70.6786 204.558 71.0454 204.225 71.4681 204.001C71.8908 203.777 72.3568 203.67 72.8258 203.688V211.232L70.969 212.999H77.3068L75.5491 211.368V203.892C75.6542 203.886 75.7596 203.886 75.8647 203.892L77.2511 204.028C77.5358 204.028 77.9814 204.069 78.5941 204.069C79.6002 204.08 80.6056 204.009 81.6022 203.858V211.232L79.7454 212.999H86.0523L84.3874 211.368V195.675L86.2936 193.67Z" fill="white"/>
</g>
<defs>
<clipPath id="clip0_236_332">
<rect width="301" height="213" fill="white"/>
</clipPath>
</defs>
</svg>
